<svg width="1456" height="812" viewBox="0 0 1456 812" fill="none" xmlns="http://www.w3.org/2000/svg">
<rect x="256.514" y="194.011" width="940.16" height="115.14" fill="#287753" stroke="#1E6943" stroke-width="3.62646"/>
<path opacity="0.8" d="M1118.7 259.74L1135.02 243.421L1151.34 259.74" stroke="white" stroke-width="7.25292" stroke-linecap="round" stroke-linejoin="round"/>
<path d="M303.183 269.345C300.732 269.345 298.586 268.944 296.744 268.143C294.918 267.343 293.492 266.141 292.467 264.54C291.442 262.938 290.906 260.936 290.858 258.533H295.254C295.302 260.071 295.671 261.336 296.359 262.329C297.048 263.322 297.993 264.067 299.194 264.564C300.412 265.044 301.821 265.284 303.423 265.284C305.169 265.284 306.57 265.06 307.627 264.612C308.7 264.163 309.485 263.555 309.982 262.786C310.478 262.001 310.727 261.128 310.727 260.167C310.727 258.982 310.39 258.005 309.718 257.236C309.061 256.451 308.092 255.762 306.81 255.17C305.545 254.561 304.007 253.945 302.198 253.32C300.276 252.647 298.57 251.846 297.08 250.917C295.607 249.972 294.445 248.835 293.597 247.506C292.748 246.16 292.323 244.575 292.323 242.749C292.323 239.706 293.308 237.383 295.278 235.781C297.264 234.18 299.947 233.379 303.327 233.379C305.585 233.379 307.451 233.739 308.925 234.46C310.414 235.181 311.567 236.254 312.384 237.679C313.201 239.089 313.738 240.843 313.994 242.941H309.573C309.429 241.836 309.125 240.875 308.66 240.058C308.196 239.225 307.515 238.584 306.618 238.136C305.737 237.671 304.56 237.439 303.087 237.439C301.084 237.439 299.523 237.864 298.402 238.713C297.296 239.561 296.744 240.835 296.744 242.533C296.744 243.542 296.944 244.423 297.344 245.175C297.761 245.928 298.498 246.641 299.555 247.314C300.612 247.986 302.134 248.707 304.12 249.476C305.561 250.036 306.947 250.597 308.276 251.158C309.605 251.718 310.791 252.367 311.832 253.104C312.873 253.824 313.698 254.729 314.306 255.819C314.915 256.892 315.219 258.237 315.219 259.855C315.251 262.898 314.242 265.244 312.192 266.894C310.142 268.528 307.139 269.345 303.183 269.345ZM331.217 269.225C328.831 269.225 326.732 268.704 324.923 267.663C323.129 266.622 321.735 265.092 320.742 263.074C319.749 261.04 319.253 258.557 319.253 255.626C319.253 252.807 319.765 250.389 320.79 248.371C321.815 246.353 323.225 244.807 325.019 243.734C326.813 242.661 328.855 242.124 331.145 242.124C333.419 242.124 335.366 242.613 336.983 243.59C338.617 244.567 339.874 245.968 340.755 247.794C341.636 249.604 342.069 251.774 342.053 254.305C342.053 254.817 342.037 255.242 342.004 255.578C341.972 255.915 341.948 256.267 341.932 256.635H323.721C323.833 259.518 324.554 261.705 325.884 263.194C327.229 264.668 328.943 265.405 331.025 265.405C332.787 265.405 334.148 265.036 335.109 264.299C336.086 263.547 336.703 262.586 336.959 261.416H341.332C341.22 263.082 340.707 264.5 339.794 265.669C338.897 266.838 337.712 267.727 336.238 268.336C334.765 268.928 333.091 269.225 331.217 269.225ZM326.1 253.272H337.56C337.528 251.029 336.975 249.268 335.902 247.986C334.829 246.705 333.187 246.064 330.977 246.064C328.654 246.064 326.893 246.857 325.691 248.443C324.49 250.012 323.833 252.183 323.721 254.954C323.849 254.297 324.106 253.856 324.49 253.632C324.89 253.392 325.427 253.272 326.1 253.272ZM358.226 269.297C355.792 269.297 353.677 268.744 351.883 267.639C350.09 266.534 348.704 264.964 347.727 262.93C346.75 260.896 346.261 258.501 346.261 255.746C346.261 252.847 346.758 250.389 347.751 248.371C348.76 246.353 350.146 244.815 351.907 243.758C353.685 242.685 355.711 242.148 357.986 242.148C360.164 242.148 362.014 242.573 363.536 243.421C365.057 244.254 366.218 245.368 367.019 246.761C367.836 248.154 368.269 249.692 368.317 251.374H363.92C363.888 250.733 363.752 250.101 363.512 249.476C363.271 248.851 362.911 248.291 362.43 247.794C361.95 247.282 361.333 246.873 360.581 246.569C359.844 246.248 358.955 246.088 357.914 246.088C355.495 246.072 353.709 246.913 352.556 248.611C351.403 250.309 350.826 252.639 350.826 255.602C350.826 258.774 351.467 261.192 352.748 262.858C354.03 264.524 355.952 265.357 358.514 265.357C359.507 265.357 360.396 265.132 361.181 264.684C361.966 264.235 362.591 263.651 363.055 262.93C363.536 262.209 363.792 261.44 363.824 260.624H368.221C368.173 262.273 367.708 263.755 366.827 265.068C365.946 266.382 364.761 267.415 363.271 268.168C361.782 268.92 360.1 269.297 358.226 269.297ZM381.749 269.225C379.715 269.225 378.161 268.704 377.088 267.663C376.031 266.606 375.502 265.108 375.502 263.17V248.947C375.502 248.435 375.606 247.962 375.814 247.53C376.023 247.081 376.327 246.793 376.727 246.665L375.502 243.686V242.869L376.583 235.037H379.923V262.425C379.923 263.451 380.163 264.147 380.644 264.516C381.124 264.868 381.949 265.044 383.118 265.044C383.967 265.044 384.688 265.044 385.28 265.044C385.873 265.028 386.49 264.996 387.13 264.948V268.888C386.249 269.048 385.336 269.145 384.391 269.177C383.463 269.209 382.582 269.225 381.749 269.225ZM371.682 246.665V242.629H386.914V246.665H371.682ZM392.229 268.864V242.797H396.746L396.674 268.864H392.229ZM394.512 238.592C393.631 238.592 392.878 238.288 392.253 237.679C391.645 237.071 391.34 236.286 391.34 235.325C391.34 234.38 391.645 233.603 392.253 232.994C392.878 232.386 393.631 232.082 394.512 232.082C395.377 232.082 396.113 232.386 396.722 232.994C397.347 233.603 397.659 234.38 397.659 235.325C397.659 236.286 397.347 237.071 396.722 237.679C396.097 238.288 395.361 238.592 394.512 238.592ZM414.479 269.225C412.173 269.225 410.147 268.704 408.401 267.663C406.671 266.622 405.318 265.092 404.341 263.074C403.38 261.04 402.899 258.549 402.899 255.602C402.899 252.815 403.412 250.413 404.437 248.395C405.462 246.377 406.855 244.831 408.617 243.758C410.395 242.669 412.381 242.124 414.576 242.124C416.962 242.124 419.02 242.669 420.75 243.758C422.496 244.831 423.841 246.377 424.786 248.395C425.731 250.413 426.204 252.815 426.204 255.602C426.204 258.549 425.675 261.04 424.618 263.074C423.577 265.092 422.168 266.622 420.39 267.663C418.612 268.704 416.642 269.225 414.479 269.225ZM414.576 265.284C416.722 265.284 418.436 264.484 419.717 262.882C420.998 261.28 421.639 258.854 421.639 255.602C421.639 252.495 421.006 250.133 419.741 248.515C418.492 246.881 416.738 246.064 414.479 246.064C412.349 246.064 410.643 246.881 409.362 248.515C408.097 250.133 407.464 252.495 407.464 255.602C407.464 258.742 408.105 261.144 409.386 262.81C410.683 264.46 412.413 265.284 414.576 265.284ZM432.27 268.864V242.629H436.066L436.546 252.527L436.114 250.533C436.322 248.979 436.754 247.57 437.411 246.305C438.084 245.023 439.021 244.006 440.222 243.253C441.439 242.484 442.969 242.1 444.811 242.1C447.246 242.1 449.136 242.853 450.481 244.358C451.842 245.848 452.523 248.074 452.523 251.037V268.864H448.054V252.503C448.054 251.013 447.886 249.812 447.55 248.899C447.23 247.986 446.709 247.322 445.988 246.905C445.283 246.489 444.338 246.28 443.153 246.28C441.728 246.28 440.47 246.673 439.381 247.458C438.308 248.243 437.427 249.324 436.738 250.701V268.864H432.27ZM474.111 268.864L474.135 237.583L475.216 233.931H478.723V268.864H474.111ZM466.831 241.475V236.983C467.664 236.983 468.449 236.959 469.185 236.911C469.938 236.863 470.627 236.75 471.252 236.574C472.052 236.366 472.773 236.062 473.414 235.661C474.071 235.245 474.671 234.668 475.216 233.931L474.351 237.415C474.095 238.168 473.782 238.833 473.414 239.409C473.061 239.97 472.533 240.418 471.828 240.755C471.204 241.059 470.547 241.259 469.858 241.355C469.169 241.435 468.16 241.475 466.831 241.475Z" fill="white"/>
<rect x="256.514" y="488.661" width="940.16" height="115.14" fill="#287753" stroke="#1E6943" stroke-width="3.62646"/>
<path opacity="0.8" d="M1151.34 538.071L1135.02 554.39L1118.7 538.071" stroke="white" stroke-width="7.25292" stroke-linecap="round" stroke-linejoin="round"/>
<path d="M303.183 563.993C300.732 563.993 298.586 563.593 296.744 562.792C294.918 561.991 293.492 560.79 292.467 559.188C291.442 557.586 290.906 555.584 290.858 553.182H295.254C295.302 554.719 295.671 555.985 296.359 556.978C297.048 557.971 297.993 558.716 299.194 559.212C300.412 559.693 301.821 559.933 303.423 559.933C305.169 559.933 306.57 559.709 307.627 559.26C308.7 558.812 309.485 558.203 309.982 557.434C310.478 556.649 310.727 555.777 310.727 554.816C310.727 553.63 310.39 552.653 309.718 551.884C309.061 551.1 308.092 550.411 306.81 549.818C305.545 549.21 304.007 548.593 302.198 547.968C300.276 547.296 298.57 546.495 297.08 545.566C295.607 544.621 294.445 543.484 293.597 542.154C292.748 540.809 292.323 539.223 292.323 537.397C292.323 534.354 293.308 532.032 295.278 530.43C297.264 528.828 299.947 528.027 303.327 528.027C305.585 528.027 307.451 528.388 308.925 529.108C310.414 529.829 311.567 530.902 312.384 532.328C313.201 533.737 313.738 535.491 313.994 537.589H309.573C309.429 536.484 309.125 535.523 308.66 534.706C308.196 533.873 307.515 533.233 306.618 532.784C305.737 532.32 304.56 532.088 303.087 532.088C301.084 532.088 299.523 532.512 298.402 533.361C297.296 534.21 296.744 535.483 296.744 537.181C296.744 538.19 296.944 539.071 297.344 539.824C297.761 540.577 298.498 541.289 299.555 541.962C300.612 542.635 302.134 543.355 304.12 544.124C305.561 544.685 306.947 545.245 308.276 545.806C309.605 546.367 310.791 547.015 311.832 547.752C312.873 548.473 313.698 549.378 314.306 550.467C314.915 551.54 315.219 552.886 315.219 554.503C315.251 557.546 314.242 559.893 312.192 561.543C310.142 563.176 307.139 563.993 303.183 563.993ZM331.217 563.873C328.831 563.873 326.732 563.353 324.923 562.311C323.129 561.27 321.735 559.741 320.742 557.723C319.749 555.688 319.253 553.206 319.253 550.275C319.253 547.456 319.765 545.037 320.79 543.019C321.815 541.001 323.225 539.455 325.019 538.382C326.813 537.309 328.855 536.773 331.145 536.773C333.419 536.773 335.366 537.261 336.983 538.238C338.617 539.215 339.874 540.617 340.755 542.443C341.636 544.252 342.069 546.423 342.053 548.953C342.053 549.466 342.037 549.89 342.004 550.227C341.972 550.563 341.948 550.915 341.932 551.284H323.721C323.833 554.167 324.554 556.353 325.884 557.843C327.229 559.316 328.943 560.053 331.025 560.053C332.787 560.053 334.148 559.685 335.109 558.948C336.086 558.195 336.703 557.234 336.959 556.065H341.332C341.22 557.731 340.707 559.148 339.794 560.317C338.897 561.487 337.712 562.375 336.238 562.984C334.765 563.577 333.091 563.873 331.217 563.873ZM326.1 547.92H337.56C337.528 545.678 336.975 543.916 335.902 542.635C334.829 541.353 333.187 540.713 330.977 540.713C328.654 540.713 326.893 541.506 325.691 543.091C324.49 544.661 323.833 546.831 323.721 549.602C323.849 548.945 324.106 548.505 324.49 548.281C324.89 548.04 325.427 547.92 326.1 547.92ZM358.226 563.945C355.792 563.945 353.677 563.393 351.883 562.287C350.09 561.182 348.704 559.613 347.727 557.578C346.75 555.544 346.261 553.15 346.261 550.395C346.261 547.496 346.758 545.037 347.751 543.019C348.76 541.001 350.146 539.463 351.907 538.406C353.685 537.333 355.711 536.797 357.986 536.797C360.164 536.797 362.014 537.221 363.536 538.07C365.057 538.903 366.218 540.016 367.019 541.409C367.836 542.803 368.269 544.341 368.317 546.022H363.92C363.888 545.382 363.752 544.749 363.512 544.124C363.271 543.5 362.911 542.939 362.43 542.443C361.95 541.93 361.333 541.522 360.581 541.217C359.844 540.897 358.955 540.737 357.914 540.737C355.495 540.721 353.709 541.562 352.556 543.259C351.403 544.957 350.826 547.288 350.826 550.251C350.826 553.422 351.467 555.841 352.748 557.506C354.03 559.172 355.952 560.005 358.514 560.005C359.507 560.005 360.396 559.781 361.181 559.332C361.966 558.884 362.591 558.299 363.055 557.578C363.536 556.858 363.792 556.089 363.824 555.272H368.221C368.173 556.922 367.708 558.403 366.827 559.717C365.946 561.03 364.761 562.063 363.271 562.816C361.782 563.569 360.1 563.945 358.226 563.945ZM381.749 563.873C379.715 563.873 378.161 563.353 377.088 562.311C376.031 561.254 375.502 559.757 375.502 557.819V543.596C375.502 543.083 375.606 542.611 375.814 542.178C376.023 541.73 376.327 541.441 376.727 541.313L375.502 538.334V537.517L376.583 529.685H379.923V557.074C379.923 558.099 380.163 558.796 380.644 559.164C381.124 559.516 381.949 559.693 383.118 559.693C383.967 559.693 384.688 559.693 385.28 559.693C385.873 559.677 386.49 559.645 387.13 559.597V563.537C386.249 563.697 385.336 563.793 384.391 563.825C383.463 563.857 382.582 563.873 381.749 563.873ZM371.682 541.313V537.277H386.914V541.313H371.682ZM392.229 563.513V537.445H396.746L396.674 563.513H392.229ZM394.512 533.241C393.631 533.241 392.878 532.937 392.253 532.328C391.645 531.719 391.34 530.934 391.34 529.973C391.34 529.028 391.645 528.252 392.253 527.643C392.878 527.034 393.631 526.73 394.512 526.73C395.377 526.73 396.113 527.034 396.722 527.643C397.347 528.252 397.659 529.028 397.659 529.973C397.659 530.934 397.347 531.719 396.722 532.328C396.097 532.937 395.361 533.241 394.512 533.241ZM414.479 563.873C412.173 563.873 410.147 563.353 408.401 562.311C406.671 561.27 405.318 559.741 404.341 557.723C403.38 555.688 402.899 553.198 402.899 550.251C402.899 547.464 403.412 545.061 404.437 543.043C405.462 541.025 406.855 539.479 408.617 538.406C410.395 537.317 412.381 536.773 414.576 536.773C416.962 536.773 419.02 537.317 420.75 538.406C422.496 539.479 423.841 541.025 424.786 543.043C425.731 545.061 426.204 547.464 426.204 550.251C426.204 553.198 425.675 555.688 424.618 557.723C423.577 559.741 422.168 561.27 420.39 562.311C418.612 563.353 416.642 563.873 414.479 563.873ZM414.576 559.933C416.722 559.933 418.436 559.132 419.717 557.53C420.998 555.929 421.639 553.502 421.639 550.251C421.639 547.143 421.006 544.781 419.741 543.163C418.492 541.53 416.738 540.713 414.479 540.713C412.349 540.713 410.643 541.53 409.362 543.163C408.097 544.781 407.464 547.143 407.464 550.251C407.464 553.39 408.105 555.793 409.386 557.458C410.683 559.108 412.413 559.933 414.576 559.933ZM432.27 563.513V537.277H436.066L436.546 547.175L436.114 545.181C436.322 543.628 436.754 542.218 437.411 540.953C438.084 539.672 439.021 538.655 440.222 537.902C441.439 537.133 442.969 536.749 444.811 536.749C447.246 536.749 449.136 537.501 450.481 539.007C451.842 540.496 452.523 542.723 452.523 545.686V563.513H448.054V547.151C448.054 545.662 447.886 544.461 447.55 543.548C447.23 542.635 446.709 541.97 445.988 541.554C445.283 541.137 444.338 540.929 443.153 540.929C441.728 540.929 440.47 541.321 439.381 542.106C438.308 542.891 437.427 543.972 436.738 545.35V563.513H432.27ZM466.014 563.513C466.879 562.456 467.776 561.358 468.705 560.221C469.65 559.068 470.595 557.907 471.54 556.738C472.501 555.568 473.446 554.423 474.375 553.302C475.304 552.165 476.185 551.084 477.018 550.059C478.267 548.553 479.42 547.143 480.477 545.83C481.534 544.517 482.383 543.203 483.024 541.89C483.681 540.561 484.009 539.159 484.009 537.686C484.009 535.828 483.488 534.394 482.447 533.385C481.406 532.36 479.933 531.855 478.027 531.871C476.697 531.871 475.504 532.12 474.447 532.616C473.406 533.113 472.605 533.954 472.044 535.139C471.5 536.324 471.3 537.958 471.444 540.04H467.143C466.887 537.157 467.199 534.826 468.08 533.049C468.961 531.255 470.283 529.941 472.044 529.108C473.806 528.276 475.872 527.859 478.243 527.859C480.373 527.859 482.199 528.244 483.721 529.012C485.258 529.765 486.436 530.854 487.252 532.28C488.085 533.705 488.494 535.403 488.478 537.373C488.478 539.247 488.173 540.929 487.565 542.418C486.956 543.892 486.147 545.31 485.138 546.671C484.129 548.016 483.024 549.434 481.823 550.923C481.07 551.852 480.309 552.789 479.54 553.734C478.771 554.663 478.035 555.56 477.33 556.425C476.625 557.274 475.985 558.043 475.408 558.732C474.847 559.404 474.399 559.957 474.063 560.389C474.543 559.877 475.136 559.573 475.84 559.476C476.545 559.364 477.498 559.308 478.699 559.308H488.598V563.513H466.014Z" fill="white"/>
<rect x="254.7" y="310.965" width="943.786" height="175.883" fill="#1C4D37"/>
<path opacity="0.87" d="M306.931 399.014C303.951 399.014 301.285 398.318 298.93 396.924C296.592 395.531 294.75 393.496 293.404 390.822C292.059 388.131 291.386 384.847 291.386 380.971C291.386 377.303 292.043 374.124 293.356 371.433C294.67 368.726 296.504 366.636 298.858 365.163C301.213 363.673 303.943 362.928 307.051 362.928C309.341 362.928 311.447 363.377 313.369 364.274C315.307 365.171 316.869 366.5 318.054 368.262C319.256 370.008 319.896 372.17 319.976 374.749H315.387C315.291 373.035 314.843 371.617 314.042 370.496C313.257 369.359 312.24 368.51 310.991 367.95C309.742 367.373 308.364 367.085 306.858 367.085C304.792 367.085 302.934 367.637 301.285 368.742C299.651 369.832 298.362 371.409 297.417 373.475C296.472 375.542 295.999 378.032 295.999 380.947C295.999 384.263 296.496 386.946 297.489 388.996C298.482 391.03 299.811 392.519 301.477 393.464C303.143 394.393 304.985 394.858 307.003 394.858C308.845 394.858 310.366 394.53 311.567 393.873C312.785 393.2 313.714 392.319 314.354 391.23C314.995 390.141 315.355 388.964 315.436 387.698H319.976C319.832 390.021 319.216 392.031 318.126 393.729C317.053 395.427 315.572 396.732 313.682 397.645C311.792 398.558 309.541 399.014 306.931 399.014ZM335.177 398.87C332.871 398.87 330.845 398.35 329.099 397.309C327.369 396.267 326.016 394.738 325.039 392.72C324.077 390.686 323.597 388.195 323.597 385.248C323.597 382.461 324.11 380.058 325.135 378.04C326.16 376.022 327.553 374.476 329.315 373.403C331.093 372.314 333.079 371.77 335.273 371.77C337.66 371.77 339.718 372.314 341.448 373.403C343.194 374.476 344.539 376.022 345.484 378.04C346.429 380.058 346.902 382.461 346.902 385.248C346.902 388.195 346.373 390.686 345.316 392.72C344.275 394.738 342.865 396.267 341.087 397.309C339.31 398.35 337.339 398.87 335.177 398.87ZM335.273 394.93C337.42 394.93 339.133 394.129 340.415 392.527C341.696 390.926 342.337 388.499 342.337 385.248C342.337 382.141 341.704 379.778 340.439 378.16C339.189 376.527 337.436 375.71 335.177 375.71C333.047 375.71 331.341 376.527 330.06 378.16C328.794 379.778 328.162 382.141 328.162 385.248C328.162 388.387 328.802 390.79 330.084 392.455C331.381 394.105 333.111 394.93 335.273 394.93ZM352.968 398.51V372.274H356.764L357.244 382.173L356.812 380.178C357.02 378.625 357.452 377.215 358.109 375.95C358.782 374.669 359.719 373.652 360.92 372.899C362.137 372.13 363.667 371.746 365.509 371.746C367.943 371.746 369.833 372.498 371.179 374.004C372.54 375.494 373.221 377.72 373.221 380.683V398.51H368.752V382.149C368.752 380.659 368.584 379.458 368.248 378.545C367.927 377.632 367.407 376.967 366.686 376.551C365.981 376.134 365.036 375.926 363.851 375.926C362.425 375.926 361.168 376.318 360.079 377.103C359.006 377.888 358.125 378.969 357.436 380.347V398.51H352.968ZM387.755 398.87C385.721 398.87 384.167 398.35 383.094 397.309C382.037 396.251 381.508 394.754 381.508 392.816V378.593C381.508 378.08 381.613 377.608 381.821 377.175C382.029 376.727 382.333 376.439 382.734 376.31L381.508 373.331V372.514L382.59 364.682H385.929V392.071C385.929 393.096 386.169 393.793 386.65 394.161C387.13 394.514 387.955 394.69 389.124 394.69C389.973 394.69 390.694 394.69 391.287 394.69C391.879 394.674 392.496 394.642 393.137 394.594V398.534C392.256 398.694 391.343 398.79 390.398 398.822C389.469 398.854 388.588 398.87 387.755 398.87ZM377.688 376.31V372.274H392.92V376.31H377.688ZM408.126 398.87C405.74 398.87 403.641 398.35 401.832 397.309C400.038 396.267 398.644 394.738 397.651 392.72C396.658 390.686 396.162 388.203 396.162 385.272C396.162 382.453 396.674 380.034 397.699 378.016C398.724 375.998 400.134 374.452 401.928 373.379C403.722 372.306 405.764 371.77 408.054 371.77C410.329 371.77 412.275 372.258 413.892 373.235C415.526 374.212 416.783 375.614 417.664 377.44C418.545 379.249 418.978 381.42 418.962 383.95C418.962 384.463 418.946 384.887 418.914 385.224C418.882 385.56 418.858 385.913 418.842 386.281H400.63C400.742 389.164 401.463 391.35 402.793 392.84C404.138 394.313 405.852 395.05 407.934 395.05C409.696 395.05 411.057 394.682 412.018 393.945C412.995 393.192 413.612 392.231 413.868 391.062H418.241C418.129 392.728 417.616 394.145 416.703 395.314C415.806 396.484 414.621 397.373 413.148 397.981C411.674 398.574 410 398.87 408.126 398.87ZM403.009 382.917H414.469C414.437 380.675 413.884 378.913 412.811 377.632C411.738 376.35 410.096 375.71 407.886 375.71C405.564 375.71 403.802 376.503 402.6 378.088C401.399 379.658 400.742 381.828 400.63 384.599C400.758 383.942 401.015 383.502 401.399 383.278C401.8 383.037 402.336 382.917 403.009 382.917ZM424.809 398.51V372.274H428.605L429.085 382.173L428.653 380.178C428.861 378.625 429.294 377.215 429.95 375.95C430.623 374.669 431.56 373.652 432.761 372.899C433.978 372.13 435.508 371.746 437.35 371.746C439.785 371.746 441.675 372.498 443.02 374.004C444.381 375.494 445.062 377.72 445.062 380.683V398.51H440.593V382.149C440.593 380.659 440.425 379.458 440.089 378.545C439.769 377.632 439.248 376.967 438.527 376.551C437.822 376.134 436.877 375.926 435.692 375.926C434.267 375.926 433.009 376.318 431.92 377.103C430.847 377.888 429.966 378.969 429.277 380.347V398.51H424.809ZM459.596 398.87C457.562 398.87 456.009 398.35 454.935 397.309C453.878 396.251 453.35 394.754 453.35 392.816V378.593C453.35 378.08 453.454 377.608 453.662 377.175C453.87 376.727 454.175 376.439 454.575 376.31L453.35 373.331V372.514L454.431 364.682H457.77V392.071C457.77 393.096 458.011 393.793 458.491 394.161C458.972 394.514 459.796 394.69 460.966 394.69C461.815 394.69 462.535 394.69 463.128 394.69C463.721 394.674 464.337 394.642 464.978 394.594V398.534C464.097 398.694 463.184 398.79 462.239 398.822C461.31 398.854 460.429 398.87 459.596 398.87ZM449.53 376.31V372.274H464.762V376.31H449.53ZM480.781 398.51V378.617C480.781 378.104 480.885 377.624 481.093 377.175C481.302 376.727 481.606 376.439 482.006 376.31L480.781 373.355V369.175C480.781 367.125 481.173 365.427 481.958 364.082C482.759 362.72 483.824 361.711 485.154 361.054C486.499 360.382 487.997 360.045 489.646 360.045C490.447 360.045 491.112 360.069 491.64 360.117C492.169 360.165 492.625 360.213 493.01 360.261V364.586C492.657 364.442 492.225 364.338 491.712 364.274C491.216 364.21 490.591 364.178 489.838 364.178C488.861 364.178 488.021 364.346 487.316 364.682C486.627 365.002 486.099 365.579 485.73 366.412C485.362 367.229 485.178 368.39 485.178 369.896V398.51H480.781ZM476.625 376.31V372.274H491.448V376.31H476.625ZM505.607 398.87C503.3 398.87 501.274 398.35 499.528 397.309C497.798 396.267 496.445 394.738 495.468 392.72C494.507 390.686 494.026 388.195 494.026 385.248C494.026 382.461 494.539 380.058 495.564 378.04C496.589 376.022 497.983 374.476 499.744 373.403C501.522 372.314 503.508 371.77 505.703 371.77C508.089 371.77 510.147 372.314 511.877 373.403C513.623 374.476 514.968 376.022 515.913 378.04C516.858 380.058 517.331 382.461 517.331 385.248C517.331 388.195 516.802 390.686 515.745 392.72C514.704 394.738 513.295 396.267 511.517 397.309C509.739 398.35 507.769 398.87 505.607 398.87ZM505.703 394.93C507.849 394.93 509.563 394.129 510.844 392.527C512.125 390.926 512.766 388.499 512.766 385.248C512.766 382.141 512.133 379.778 510.868 378.16C509.619 376.527 507.865 375.71 505.607 375.71C503.476 375.71 501.771 376.527 500.489 378.16C499.224 379.778 498.591 382.141 498.591 385.248C498.591 388.387 499.232 390.79 500.513 392.455C501.811 394.105 503.54 394.93 505.703 394.93ZM523.397 398.51V372.274H527.193L527.673 382.365L527.145 380.995C527.257 380.002 527.473 378.969 527.794 377.896C528.13 376.823 528.602 375.822 529.211 374.893C529.836 373.948 530.629 373.187 531.59 372.61C532.567 372.034 533.76 371.746 535.169 371.746C535.442 371.746 535.698 371.762 535.938 371.794C536.194 371.826 536.443 371.866 536.683 371.914V376.647C536.283 376.519 535.858 376.439 535.41 376.406C534.977 376.358 534.569 376.334 534.184 376.334C533.399 376.334 532.607 376.487 531.806 376.791C531.005 377.095 530.26 377.584 529.571 378.256C528.883 378.913 528.314 379.77 527.866 380.827V398.51H523.397ZM558.574 398.918C556.765 398.918 555.107 398.646 553.601 398.101C552.112 397.541 550.902 396.676 549.973 395.507C549.044 394.321 548.524 392.8 548.412 390.942H552.832C553.121 392.543 553.753 393.649 554.73 394.257C555.723 394.85 556.981 395.146 558.502 395.146C559.543 395.146 560.48 395.034 561.313 394.81C562.162 394.586 562.835 394.209 563.331 393.681C563.828 393.152 564.076 392.431 564.076 391.518C564.076 390.814 563.924 390.245 563.62 389.813C563.315 389.38 562.891 389.028 562.346 388.755C561.802 388.467 561.161 388.219 560.424 388.011C559.704 387.802 558.919 387.578 558.07 387.338C556.484 386.874 555.019 386.337 553.673 385.728C552.328 385.104 551.247 384.271 550.43 383.23C549.613 382.189 549.205 380.795 549.205 379.049C549.205 376.903 550.021 375.165 551.655 373.836C553.289 372.49 555.435 371.818 558.094 371.818C559.776 371.818 561.289 372.074 562.635 372.586C563.996 373.099 565.101 373.924 565.95 375.061C566.815 376.182 567.344 377.688 567.536 379.578H563.139C562.979 378.713 562.683 377.984 562.25 377.392C561.834 376.799 561.281 376.35 560.593 376.046C559.904 375.742 559.063 375.59 558.07 375.59C557.237 375.59 556.484 375.71 555.812 375.95C555.139 376.174 554.602 376.535 554.202 377.031C553.801 377.528 553.601 378.184 553.601 379.001C553.601 379.898 553.841 380.619 554.322 381.164C554.803 381.708 555.483 382.165 556.364 382.533C557.245 382.885 558.278 383.238 559.463 383.59C560.376 383.878 561.353 384.183 562.394 384.503C563.436 384.807 564.413 385.216 565.326 385.728C566.255 386.241 567.007 386.93 567.584 387.794C568.177 388.643 568.473 389.757 568.473 391.134C568.473 393.601 567.56 395.515 565.734 396.876C563.908 398.237 561.522 398.918 558.574 398.918ZM584.421 398.87C582.035 398.87 579.936 398.35 578.127 397.309C576.333 396.267 574.939 394.738 573.946 392.72C572.953 390.686 572.457 388.203 572.457 385.272C572.457 382.453 572.969 380.034 573.994 378.016C575.019 375.998 576.429 374.452 578.223 373.379C580.017 372.306 582.059 371.77 584.349 371.77C586.623 371.77 588.57 372.258 590.187 373.235C591.821 374.212 593.078 375.614 593.959 377.44C594.84 379.249 595.273 381.42 595.257 383.95C595.257 384.463 595.241 384.887 595.209 385.224C595.176 385.56 595.152 385.913 595.136 386.281H576.925C577.037 389.164 577.758 391.35 579.088 392.84C580.433 394.313 582.147 395.05 584.229 395.05C585.991 395.05 587.352 394.682 588.313 393.945C589.29 393.192 589.907 392.231 590.163 391.062H594.536C594.424 392.728 593.911 394.145 592.998 395.314C592.101 396.484 590.916 397.373 589.442 397.981C587.969 398.574 586.295 398.87 584.421 398.87ZM579.304 382.917H590.764C590.732 380.675 590.179 378.913 589.106 377.632C588.033 376.35 586.391 375.71 584.181 375.71C581.858 375.71 580.097 376.503 578.895 378.088C577.694 379.658 577.037 381.828 576.925 384.599C577.053 383.942 577.31 383.502 577.694 383.278C578.095 383.037 578.631 382.917 579.304 382.917ZM611.43 398.942C608.996 398.942 606.881 398.39 605.087 397.284C603.294 396.179 601.908 394.61 600.931 392.576C599.954 390.541 599.466 388.147 599.466 385.392C599.466 382.493 599.962 380.034 600.955 378.016C601.964 375.998 603.35 374.46 605.111 373.403C606.889 372.33 608.915 371.794 611.19 371.794C613.368 371.794 615.218 372.218 616.74 373.067C618.261 373.9 619.423 375.013 620.223 376.406C621.04 377.8 621.473 379.338 621.521 381.019H617.124C617.092 380.379 616.956 379.746 616.716 379.121C616.475 378.497 616.115 377.936 615.635 377.44C615.154 376.927 614.537 376.519 613.785 376.214C613.048 375.894 612.159 375.734 611.118 375.734C608.699 375.718 606.913 376.559 605.76 378.256C604.607 379.954 604.03 382.285 604.03 385.248C604.03 388.419 604.671 390.838 605.952 392.503C607.234 394.169 609.156 395.002 611.718 395.002C612.711 395.002 613.6 394.778 614.385 394.329C615.17 393.881 615.795 393.296 616.259 392.576C616.74 391.855 616.996 391.086 617.028 390.269H621.425C621.377 391.919 620.912 393.4 620.031 394.714C619.15 396.027 617.965 397.06 616.475 397.813C614.986 398.566 613.304 398.942 611.43 398.942ZM634.953 398.87C632.919 398.87 631.365 398.35 630.292 397.309C629.235 396.251 628.706 394.754 628.706 392.816V378.593C628.706 378.08 628.81 377.608 629.018 377.175C629.227 376.727 629.531 376.439 629.931 376.31L628.706 373.331V372.514L629.787 364.682H633.127V392.071C633.127 393.096 633.367 393.793 633.848 394.161C634.328 394.514 635.153 394.69 636.322 394.69C637.171 394.69 637.892 394.69 638.484 394.69C639.077 394.674 639.694 394.642 640.334 394.594V398.534C639.453 398.694 638.541 398.79 637.596 398.822C636.667 398.854 635.786 398.87 634.953 398.87ZM624.886 376.31V372.274H640.118V376.31H624.886ZM645.433 398.51V372.442H649.95L649.878 398.51H645.433ZM647.716 368.238C646.835 368.238 646.082 367.934 645.457 367.325C644.849 366.716 644.544 365.931 644.544 364.97C644.544 364.025 644.849 363.249 645.457 362.64C646.082 362.031 646.835 361.727 647.716 361.727C648.581 361.727 649.318 362.031 649.926 362.64C650.551 363.249 650.863 364.025 650.863 364.97C650.863 365.931 650.551 366.716 649.926 367.325C649.301 367.934 648.565 368.238 647.716 368.238ZM667.683 398.87C665.377 398.87 663.351 398.35 661.605 397.309C659.875 396.267 658.522 394.738 657.545 392.72C656.584 390.686 656.103 388.195 656.103 385.248C656.103 382.461 656.616 380.058 657.641 378.04C658.666 376.022 660.059 374.476 661.821 373.403C663.599 372.314 665.585 371.77 667.78 371.77C670.166 371.77 672.224 372.314 673.954 373.403C675.7 374.476 677.045 376.022 677.99 378.04C678.935 380.058 679.408 382.461 679.408 385.248C679.408 388.195 678.879 390.686 677.822 392.72C676.781 394.738 675.372 396.267 673.594 397.309C671.816 398.35 669.846 398.87 667.683 398.87ZM667.78 394.93C669.926 394.93 671.64 394.129 672.921 392.527C674.202 390.926 674.843 388.499 674.843 385.248C674.843 382.141 674.21 379.778 672.945 378.16C671.696 376.527 669.942 375.71 667.683 375.71C665.553 375.71 663.847 376.527 662.566 378.16C661.301 379.778 660.668 382.141 660.668 385.248C660.668 388.387 661.309 390.79 662.59 392.455C663.887 394.105 665.617 394.93 667.78 394.93ZM685.474 398.51V372.274H689.27L689.75 382.173L689.318 380.178C689.526 378.625 689.959 377.215 690.615 375.95C691.288 374.669 692.225 373.652 693.426 372.899C694.643 372.13 696.173 371.746 698.015 371.746C700.45 371.746 702.34 372.498 703.685 374.004C705.046 375.494 705.727 377.72 705.727 380.683V398.51H701.258V382.149C701.258 380.659 701.09 379.458 700.754 378.545C700.434 377.632 699.913 376.967 699.192 376.551C698.488 376.134 697.543 375.926 696.357 375.926C694.932 375.926 693.674 376.318 692.585 377.103C691.512 377.888 690.631 378.969 689.943 380.347V398.51H685.474ZM727.315 398.51L727.339 367.229L728.42 363.577H731.927V398.51H727.315ZM720.035 371.121V366.628C720.868 366.628 721.653 366.604 722.389 366.556C723.142 366.508 723.831 366.396 724.456 366.22C725.256 366.012 725.977 365.707 726.618 365.307C727.275 364.89 727.875 364.314 728.42 363.577L727.555 367.061C727.299 367.813 726.986 368.478 726.618 369.055C726.266 369.615 725.737 370.064 725.032 370.4C724.408 370.704 723.751 370.905 723.062 371.001C722.373 371.081 721.364 371.121 720.035 371.121Z" fill="white"/>
<rect x="234.36" y="166.36" width="986.397" height="463.28" stroke="#C1FFDF" stroke-width="2.71984" stroke-dasharray="10.88 10.88"/>
<path d="M433.204 105V89.166H436.133L436.51 95.2705L436.206 94.4295C436.273 93.7915 436.399 93.1438 436.583 92.4865C436.776 91.8292 437.047 91.225 437.395 90.674C437.752 90.123 438.207 89.6832 438.758 89.3545C439.318 89.0162 440 88.847 440.802 88.847C440.995 88.847 441.189 88.8567 441.382 88.876C441.575 88.8953 441.754 88.9292 441.919 88.9775V92.6315C441.59 92.5252 441.237 92.4575 440.86 92.4285C440.493 92.3898 440.154 92.3705 439.845 92.3705C439.468 92.3705 439.062 92.4478 438.627 92.6025C438.192 92.7475 437.791 92.9698 437.424 93.2695C437.056 93.5692 436.79 93.9413 436.626 94.386V105H433.204ZM450.44 105.218C448.98 105.218 447.709 104.903 446.626 104.275C445.544 103.647 444.703 102.723 444.103 101.505C443.504 100.278 443.204 98.7747 443.204 96.996C443.204 95.314 443.518 93.864 444.147 92.646C444.785 91.428 445.655 90.4952 446.757 89.8475C447.859 89.1902 449.106 88.8615 450.498 88.8615C452.006 88.8615 453.296 89.1902 454.369 89.8475C455.452 90.4952 456.283 91.428 456.863 92.646C457.443 93.864 457.733 95.314 457.733 96.996C457.733 98.7747 457.409 100.278 456.762 101.505C456.124 102.723 455.254 103.647 454.152 104.275C453.05 104.903 451.812 105.218 450.44 105.218ZM450.498 102.303C451.609 102.303 452.518 101.887 453.224 101.056C453.929 100.225 454.282 98.8713 454.282 96.996C454.282 95.256 453.939 93.951 453.253 93.081C452.566 92.211 451.629 91.776 450.44 91.776C449.328 91.776 448.419 92.2062 447.714 93.0665C447.018 93.9268 446.67 95.2367 446.67 96.996C446.67 98.7843 447.023 100.118 447.728 100.998C448.444 101.868 449.367 102.303 450.498 102.303ZM467.234 105.218C465.774 105.218 464.503 104.903 463.42 104.275C462.338 103.647 461.497 102.723 460.897 101.505C460.298 100.278 459.998 98.7747 459.998 96.996C459.998 95.314 460.312 93.864 460.941 92.646C461.579 91.428 462.449 90.4952 463.551 89.8475C464.653 89.1902 465.9 88.8615 467.292 88.8615C468.8 88.8615 470.09 89.1902 471.163 89.8475C472.246 90.4952 473.077 91.428 473.657 92.646C474.237 93.864 474.527 95.314 474.527 96.996C474.527 98.7747 474.203 100.278 473.556 101.505C472.918 102.723 472.048 103.647 470.946 104.275C469.844 104.903 468.606 105.218 467.234 105.218ZM467.292 102.303C468.403 102.303 469.312 101.887 470.018 101.056C470.723 100.225 471.076 98.8713 471.076 96.996C471.076 95.256 470.733 93.951 470.047 93.081C469.36 92.211 468.423 91.776 467.234 91.776C466.122 91.776 465.213 92.2062 464.508 93.0665C463.812 93.9268 463.464 95.2367 463.464 96.996C463.464 98.7843 463.817 100.118 464.522 100.998C465.238 101.868 466.161 102.303 467.292 102.303ZM482.453 105.232C481.196 105.232 480.215 104.913 479.509 104.275C478.813 103.627 478.465 102.704 478.465 101.505V93.5015C478.465 93.1825 478.533 92.8973 478.668 92.646C478.803 92.385 479.002 92.2207 479.263 92.153L478.465 89.804V89.3835L479.234 84.642H481.844V100.65C481.844 101.211 481.964 101.602 482.206 101.824C482.457 102.047 482.921 102.158 483.598 102.158C484.033 102.158 484.434 102.158 484.802 102.158C485.169 102.148 485.502 102.139 485.802 102.129V105.044C485.299 105.131 484.748 105.184 484.149 105.203C483.55 105.222 482.984 105.232 482.453 105.232ZM476.392 92.153V89.166H485.831V92.153H476.392Z" fill="white"/>
<path d="M82.233 279V263.166H85.6985L85.655 279H82.233ZM83.9875 260.831C83.3592 260.831 82.8275 260.614 82.3925 260.179C81.9575 259.734 81.74 259.169 81.74 258.482C81.74 257.806 81.9575 257.255 82.3925 256.829C82.8275 256.404 83.3592 256.191 83.9875 256.191C84.5965 256.191 85.1185 256.404 85.5535 256.829C85.9982 257.255 86.2205 257.806 86.2205 258.482C86.2205 259.169 85.9982 259.734 85.5535 260.179C85.1185 260.614 84.5965 260.831 83.9875 260.831ZM94.5229 279.232C93.2662 279.232 92.285 278.913 91.5794 278.275C90.8834 277.627 90.5354 276.704 90.5354 275.505V267.501C90.5354 267.182 90.603 266.897 90.7384 266.646C90.8737 266.385 91.0719 266.221 91.3329 266.153L90.5354 263.804V263.383L91.3039 258.642H93.9139V274.65C93.9139 275.211 94.0347 275.602 94.2764 275.824C94.5277 276.047 94.9917 276.158 95.6684 276.158C96.1034 276.158 96.5046 276.158 96.8719 276.158C97.2392 276.148 97.5727 276.139 97.8724 276.129V279.044C97.3697 279.131 96.8187 279.184 96.2194 279.203C95.62 279.222 95.0545 279.232 94.5229 279.232ZM88.4619 266.153V263.166H97.9014V266.153H88.4619ZM107.159 279.218C105.632 279.218 104.308 278.908 103.186 278.289C102.075 277.661 101.219 276.738 100.62 275.52C100.021 274.302 99.7209 272.808 99.7209 271.039C99.7209 269.319 100.035 267.849 100.663 266.631C101.301 265.404 102.176 264.471 103.288 263.833C104.4 263.185 105.676 262.861 107.116 262.861C108.537 262.861 109.75 263.142 110.755 263.702C111.77 264.263 112.544 265.094 113.075 266.196C113.607 267.289 113.873 268.632 113.873 270.227C113.873 270.537 113.863 270.793 113.844 270.996C113.834 271.199 113.82 271.441 113.8 271.721H103.128C103.215 273.335 103.612 274.524 104.317 275.288C105.023 276.042 105.888 276.419 106.913 276.419C107.87 276.419 108.6 276.216 109.102 275.81C109.615 275.394 109.943 274.93 110.088 274.418H113.394C113.307 275.433 112.988 276.303 112.437 277.028C111.886 277.743 111.157 278.289 110.248 278.666C109.349 279.034 108.319 279.218 107.159 279.218ZM104.694 269.386H110.465C110.436 268.226 110.156 267.332 109.624 266.704C109.093 266.066 108.218 265.747 107 265.747C105.734 265.747 104.791 266.172 104.172 267.023C103.554 267.864 103.206 269.029 103.128 270.517C103.206 270.082 103.37 269.788 103.621 269.633C103.873 269.469 104.23 269.386 104.694 269.386ZM116.953 279V263.166H119.897L120.274 269.14L120.027 267.936C120.143 267.066 120.37 266.245 120.709 265.471C121.047 264.688 121.559 264.055 122.246 263.572C122.932 263.089 123.845 262.847 124.986 262.847C126.252 262.847 127.272 263.209 128.046 263.934C128.829 264.65 129.312 265.752 129.496 267.24L129.568 267.472V279H126.132V269.705C126.132 268.797 126.045 268.067 125.871 267.516C125.697 266.965 125.421 266.569 125.044 266.327C124.677 266.076 124.189 265.95 123.58 265.95C122.864 265.95 122.217 266.163 121.637 266.588C121.057 267.004 120.641 267.477 120.39 268.009V279H116.953ZM135.31 279V269.705C135.31 268.797 135.223 268.067 135.049 267.516C134.875 266.965 134.6 266.569 134.223 266.327C133.855 266.076 133.367 265.95 132.758 265.95C132.043 265.95 131.395 266.163 130.815 266.588C130.235 267.004 129.819 267.477 129.568 268.009L129.539 269.14L129.307 268.197C129.404 267.337 129.612 266.501 129.931 265.689C130.259 264.867 130.762 264.191 131.439 263.659C132.115 263.118 133.024 262.847 134.165 262.847C135.595 262.847 136.717 263.316 137.529 264.253C138.341 265.181 138.747 266.602 138.747 268.516V279H135.31Z" fill="white"/>
<path d="M771.018 128.232C769.761 128.232 768.78 127.913 768.075 127.275C767.379 126.627 767.031 125.704 767.031 124.505V116.501C767.031 116.182 767.098 115.897 767.234 115.646C767.369 115.385 767.567 115.221 767.828 115.153L767.031 112.804V112.383L767.799 107.642H770.409V123.65C770.409 124.211 770.53 124.602 770.772 124.824C771.023 125.047 771.487 125.158 772.164 125.158C772.599 125.158 773 125.158 773.367 125.158C773.734 125.148 774.068 125.139 774.368 125.129V128.044C773.865 128.131 773.314 128.184 772.715 128.203C772.115 128.222 771.55 128.232 771.018 128.232ZM764.957 115.153V112.166H774.397V115.153H764.957ZM777.589 128V112.166H780.518L780.895 118.27L780.59 117.429C780.658 116.791 780.784 116.144 780.967 115.486C781.161 114.829 781.431 114.225 781.779 113.674C782.137 113.123 782.591 112.683 783.142 112.355C783.703 112.016 784.384 111.847 785.187 111.847C785.38 111.847 785.573 111.857 785.767 111.876C785.96 111.895 786.139 111.929 786.303 111.977V115.631C785.975 115.525 785.622 115.457 785.245 115.428C784.877 115.39 784.539 115.37 784.23 115.37C783.853 115.37 783.447 115.448 783.012 115.602C782.577 115.747 782.176 115.97 781.808 116.269C781.441 116.569 781.175 116.941 781.011 117.386V128H777.589ZM788.861 128V112.166H792.326L792.283 128H788.861ZM790.615 109.831C789.987 109.831 789.455 109.614 789.02 109.179C788.585 108.734 788.368 108.169 788.368 107.482C788.368 106.806 788.585 106.255 789.02 105.829C789.455 105.404 789.987 105.191 790.615 105.191C791.224 105.191 791.746 105.404 792.181 105.829C792.626 106.255 792.848 106.806 792.848 107.482C792.848 108.169 792.626 108.734 792.181 109.179C791.746 109.614 791.224 109.831 790.615 109.831ZM802.857 134.467C801.571 134.467 800.411 134.254 799.377 133.829C798.352 133.413 797.56 132.775 796.999 131.915C796.438 131.055 796.221 129.977 796.347 128.682H799.653C799.643 129.233 799.711 129.726 799.856 130.161C800.001 130.605 800.305 130.958 800.769 131.219C801.233 131.48 801.939 131.611 802.886 131.611C803.708 131.611 804.336 131.495 804.771 131.263C805.216 131.031 805.515 130.678 805.67 130.204C805.825 129.73 805.902 129.117 805.902 128.363V124.07C805.815 124.525 805.627 125.003 805.337 125.506C805.047 126.009 804.597 126.434 803.988 126.782C803.379 127.12 802.557 127.289 801.523 127.289C800.585 127.289 799.749 127.082 799.015 126.666C798.28 126.25 797.656 125.69 797.144 124.984C796.632 124.278 796.24 123.486 795.97 122.606C795.709 121.717 795.578 120.798 795.578 119.851C795.578 118.092 795.868 116.622 796.448 115.443C797.038 114.264 797.797 113.374 798.725 112.775C799.653 112.176 800.634 111.876 801.668 111.876C802.586 111.876 803.326 112.002 803.887 112.253C804.457 112.504 804.902 112.809 805.221 113.166C805.54 113.524 805.772 113.877 805.917 114.225L805.931 112.18H809.281V128.334C809.281 129.764 809 130.929 808.44 131.828C807.889 132.727 807.13 133.384 806.163 133.8C805.196 134.225 804.094 134.448 802.857 134.467ZM802.698 124.549C803.423 124.549 804.007 124.452 804.452 124.259C804.897 124.056 805.235 123.819 805.467 123.548C805.699 123.268 805.844 123.026 805.902 122.823V116.197C805.805 115.965 805.627 115.738 805.366 115.515C805.105 115.293 804.761 115.109 804.336 114.964C803.911 114.819 803.389 114.747 802.77 114.747C801.697 114.747 800.817 115.143 800.131 115.936C799.445 116.729 799.102 117.971 799.102 119.662C799.102 121.199 799.44 122.398 800.117 123.258C800.803 124.119 801.663 124.549 802.698 124.549ZM819.849 134.467C818.564 134.467 817.404 134.254 816.369 133.829C815.345 133.413 814.552 132.775 813.991 131.915C813.431 131.055 813.213 129.977 813.339 128.682H816.645C816.635 129.233 816.703 129.726 816.848 130.161C816.993 130.605 817.297 130.958 817.761 131.219C818.225 131.48 818.931 131.611 819.878 131.611C820.7 131.611 821.328 131.495 821.763 131.263C822.208 131.031 822.508 130.678 822.662 130.204C822.817 129.73 822.894 129.117 822.894 128.363V124.07C822.807 124.525 822.619 125.003 822.329 125.506C822.039 126.009 821.589 126.434 820.98 126.782C820.371 127.12 819.55 127.289 818.515 127.289C817.578 127.289 816.741 127.082 816.007 126.666C815.272 126.25 814.649 125.69 814.136 124.984C813.624 124.278 813.232 123.486 812.962 122.606C812.701 121.717 812.57 120.798 812.57 119.851C812.57 118.092 812.86 116.622 813.44 115.443C814.03 114.264 814.789 113.374 815.717 112.775C816.645 112.176 817.626 111.876 818.66 111.876C819.579 111.876 820.318 112.002 820.879 112.253C821.449 112.504 821.894 112.809 822.213 113.166C822.532 113.524 822.764 113.877 822.909 114.225L822.923 112.18H826.273V128.334C826.273 129.764 825.992 130.929 825.432 131.828C824.881 132.727 824.122 133.384 823.155 133.8C822.189 134.225 821.087 134.448 819.849 134.467ZM819.69 124.549C820.415 124.549 821 124.452 821.444 124.259C821.889 124.056 822.227 123.819 822.459 123.548C822.691 123.268 822.836 123.026 822.894 122.823V116.197C822.798 115.965 822.619 115.738 822.358 115.515C822.097 115.293 821.754 115.109 821.328 114.964C820.903 114.819 820.381 114.747 819.762 114.747C818.689 114.747 817.81 115.143 817.123 115.936C816.437 116.729 816.094 117.971 816.094 119.662C816.094 121.199 816.432 122.398 817.109 123.258C817.795 124.119 818.655 124.549 819.69 124.549ZM836.897 128.218C835.369 128.218 834.045 127.908 832.924 127.289C831.812 126.661 830.957 125.738 830.357 124.52C829.758 123.302 829.458 121.808 829.458 120.039C829.458 118.319 829.772 116.849 830.401 115.631C831.039 114.404 831.914 113.471 833.025 112.833C834.137 112.185 835.413 111.861 836.853 111.861C838.274 111.861 839.487 112.142 840.493 112.702C841.508 113.263 842.281 114.094 842.813 115.196C843.344 116.289 843.61 117.632 843.61 119.227C843.61 119.537 843.601 119.793 843.581 119.996C843.572 120.199 843.557 120.441 843.538 120.721H832.866C832.953 122.335 833.349 123.524 834.055 124.288C834.76 125.042 835.626 125.419 836.65 125.419C837.607 125.419 838.337 125.216 838.84 124.81C839.352 124.394 839.681 123.93 839.826 123.418H843.132C843.045 124.433 842.726 125.303 842.175 126.028C841.624 126.743 840.894 127.289 839.985 127.666C839.086 128.034 838.057 128.218 836.897 128.218ZM834.432 118.386H840.203C840.174 117.226 839.893 116.332 839.362 115.704C838.83 115.066 837.955 114.747 836.737 114.747C835.471 114.747 834.528 115.172 833.91 116.023C833.291 116.864 832.943 118.029 832.866 119.517C832.943 119.082 833.107 118.788 833.359 118.633C833.61 118.469 833.968 118.386 834.432 118.386ZM846.69 128V112.166H849.619L849.996 118.27L849.692 117.429C849.759 116.791 849.885 116.144 850.069 115.486C850.262 114.829 850.533 114.225 850.881 113.674C851.238 113.123 851.693 112.683 852.244 112.355C852.804 112.016 853.486 111.847 854.288 111.847C854.482 111.847 854.675 111.857 854.868 111.876C855.062 111.895 855.24 111.929 855.405 111.977V115.631C855.076 115.525 854.723 115.457 854.346 115.428C853.979 115.39 853.641 115.37 853.331 115.37C852.954 115.37 852.548 115.448 852.113 115.602C851.678 115.747 851.277 115.97 850.91 116.269C850.542 116.569 850.277 116.941 850.112 117.386V128H846.69Z" fill="white"/>
<path d="M1282.63 398.276C1281.06 398.276 1279.72 397.932 1278.6 397.246C1277.48 396.55 1276.61 395.583 1276.02 394.346C1275.43 393.109 1275.13 391.673 1275.13 390.039C1275.13 388.319 1275.44 386.849 1276.04 385.631C1276.65 384.413 1277.5 383.485 1278.58 382.847C1279.66 382.2 1280.91 381.876 1282.32 381.876C1283.72 381.876 1284.9 382.137 1285.85 382.659C1286.8 383.171 1287.52 383.862 1287.99 384.732C1288.47 385.593 1288.68 386.555 1288.64 387.618H1285.35C1285.34 387.193 1285.28 386.806 1285.15 386.458C1285.02 386.1 1284.84 385.801 1284.59 385.559C1284.34 385.308 1284.03 385.114 1283.66 384.979C1283.28 384.844 1282.84 384.776 1282.34 384.776C1280.98 384.766 1280.02 385.23 1279.45 386.168C1278.89 387.106 1278.61 388.372 1278.61 389.967C1278.61 391.784 1278.95 393.142 1279.63 394.041C1280.31 394.931 1281.38 395.38 1282.83 395.39C1283.17 395.39 1283.54 395.293 1283.93 395.1C1284.34 394.897 1284.68 394.612 1284.96 394.244C1285.25 393.867 1285.39 393.418 1285.38 392.896H1288.64C1288.68 394.008 1288.42 394.965 1287.85 395.767C1287.29 396.569 1286.54 397.188 1285.61 397.623C1284.69 398.058 1283.69 398.276 1282.63 398.276ZM1297.94 398.218C1296.48 398.218 1295.21 397.903 1294.13 397.275C1293.05 396.647 1292.21 395.723 1291.61 394.505C1291.01 393.278 1290.71 391.775 1290.71 389.996C1290.71 388.314 1291.02 386.864 1291.65 385.646C1292.29 384.428 1293.16 383.495 1294.26 382.847C1295.36 382.19 1296.61 381.861 1298 381.861C1299.51 381.861 1300.8 382.19 1301.87 382.847C1302.95 383.495 1303.79 384.428 1304.37 385.646C1304.95 386.864 1305.24 388.314 1305.24 389.996C1305.24 391.775 1304.91 393.278 1304.26 394.505C1303.63 395.723 1302.76 396.647 1301.65 397.275C1300.55 397.903 1299.32 398.218 1297.94 398.218ZM1298 395.303C1299.11 395.303 1300.02 394.887 1300.73 394.056C1301.43 393.225 1301.79 391.871 1301.79 389.996C1301.79 388.256 1301.44 386.951 1300.76 386.081C1300.07 385.211 1299.13 384.776 1297.94 384.776C1296.83 384.776 1295.92 385.206 1295.22 386.066C1294.52 386.927 1294.17 388.237 1294.17 389.996C1294.17 391.784 1294.53 393.118 1295.23 393.998C1295.95 394.868 1296.87 395.303 1298 395.303ZM1308.55 398V382.166H1311.47L1311.85 388.14L1311.61 386.936C1311.72 386.066 1311.95 385.245 1312.29 384.471C1312.63 383.688 1313.15 383.055 1313.84 382.572C1314.52 382.089 1315.44 381.847 1316.59 381.847C1318.09 381.847 1319.25 382.316 1320.07 383.253C1320.89 384.181 1321.31 385.602 1321.31 387.516V398H1317.88V388.705C1317.88 387.797 1317.79 387.067 1317.61 386.516C1317.43 385.965 1317.15 385.569 1316.75 385.327C1316.36 385.076 1315.83 384.95 1315.17 384.95C1314.46 384.95 1313.8 385.163 1313.21 385.588C1312.63 386.004 1312.22 386.477 1311.97 387.009V398H1308.55ZM1329.73 398.232C1328.47 398.232 1327.49 397.913 1326.79 397.275C1326.09 396.627 1325.74 395.704 1325.74 394.505V386.501C1325.74 386.182 1325.81 385.897 1325.94 385.646C1326.08 385.385 1326.28 385.221 1326.54 385.153L1325.74 382.804V382.383L1326.51 377.642H1329.12V393.65C1329.12 394.211 1329.24 394.602 1329.48 394.824C1329.73 395.047 1330.2 395.158 1330.87 395.158C1331.31 395.158 1331.71 395.158 1332.08 395.158C1332.45 395.148 1332.78 395.139 1333.08 395.129V398.044C1332.58 398.131 1332.02 398.184 1331.43 398.203C1330.83 398.222 1330.26 398.232 1329.73 398.232ZM1323.67 385.153V382.166H1333.11V385.153H1323.67ZM1342.37 398.218C1340.84 398.218 1339.51 397.908 1338.39 397.289C1337.28 396.661 1336.43 395.738 1335.83 394.52C1335.23 393.302 1334.93 391.808 1334.93 390.039C1334.93 388.319 1335.24 386.849 1335.87 385.631C1336.51 384.404 1337.38 383.471 1338.49 382.833C1339.61 382.185 1340.88 381.861 1342.32 381.861C1343.74 381.861 1344.96 382.142 1345.96 382.702C1346.98 383.263 1347.75 384.094 1348.28 385.196C1348.81 386.289 1349.08 387.632 1349.08 389.227C1349.08 389.537 1349.07 389.793 1349.05 389.996C1349.04 390.199 1349.03 390.441 1349.01 390.721H1338.33C1338.42 392.335 1338.82 393.524 1339.52 394.288C1340.23 395.042 1341.09 395.419 1342.12 395.419C1343.08 395.419 1343.81 395.216 1344.31 394.81C1344.82 394.394 1345.15 393.93 1345.29 393.418H1348.6C1348.51 394.433 1348.19 395.303 1347.64 396.028C1347.09 396.743 1346.36 397.289 1345.45 397.666C1344.55 398.034 1343.53 398.218 1342.37 398.218ZM1339.9 388.386H1345.67C1345.64 387.226 1345.36 386.332 1344.83 385.704C1344.3 385.066 1343.42 384.747 1342.21 384.747C1340.94 384.747 1340 385.172 1339.38 386.023C1338.76 386.864 1338.41 388.029 1338.33 389.517C1338.41 389.082 1338.58 388.788 1338.83 388.633C1339.08 388.469 1339.44 388.386 1339.9 388.386ZM1352.16 398V382.166H1355.09L1355.47 388.14L1355.22 386.936C1355.33 386.066 1355.56 385.245 1355.9 384.471C1356.25 383.688 1356.77 383.055 1357.45 382.572C1358.14 382.089 1359.06 381.847 1360.21 381.847C1361.7 381.847 1362.86 382.316 1363.69 383.253C1364.51 384.181 1364.92 385.602 1364.92 387.516V398H1361.5V388.705C1361.5 387.797 1361.41 387.067 1361.22 386.516C1361.05 385.965 1360.76 385.569 1360.37 385.327C1359.97 385.076 1359.44 384.95 1358.79 384.95C1358.07 384.95 1357.42 385.163 1356.83 385.588C1356.25 386.004 1355.83 386.477 1355.58 387.009V398H1352.16ZM1373.34 398.232C1372.09 398.232 1371.1 397.913 1370.4 397.275C1369.7 396.627 1369.35 395.704 1369.35 394.505V386.501C1369.35 386.182 1369.42 385.897 1369.56 385.646C1369.69 385.385 1369.89 385.221 1370.15 385.153L1369.35 382.804V382.383L1370.12 377.642H1372.73V393.65C1372.73 394.211 1372.85 394.602 1373.1 394.824C1373.35 395.047 1373.81 395.158 1374.49 395.158C1374.92 395.158 1375.32 395.158 1375.69 395.158C1376.06 395.148 1376.39 395.139 1376.69 395.129V398.044C1376.19 398.131 1375.64 398.184 1375.04 398.203C1374.44 398.222 1373.87 398.232 1373.34 398.232ZM1367.28 385.153V382.166H1376.72V385.153H1367.28Z" fill="white"/>
<path d="M464 178.047L475.547 166.5L464 154.953L452.453 166.5L464 178.047ZM462 115L462 166.5L466 166.5L466 115L462 115Z" fill="#2CFF80"/>
<path d="M1139.45 390L1151 401.547L1162.55 390L1151 378.453L1139.45 390ZM1256 388L1151 388L1151 392L1256 392L1256 388Z" fill="#2CFF80"/>
<path d="M220.5 195H183V492H220.5" stroke="#2CFF80" stroke-width="4"/>
<path d="M195.547 269.5L184 257.953L172.453 269.5L184 281.047L195.547 269.5ZM184 267.5H146.5V271.5H184V267.5Z" fill="#2CFF80"/>
<path d="M808 257.547L819.547 246L808 234.453L796.453 246L808 257.547ZM806 148L806 246L810 246L810 148L806 148Z" fill="#2CFF80"/>
</svg>
