<svg width="1456" height="812" viewBox="0 0 1456 812" fill="none" xmlns="http://www.w3.org/2000/svg">
<rect x="367.5" y="257.5" width="700" height="169" stroke="#C1FFDF" stroke-width="3" stroke-dasharray="12 12"/>
<rect x="402" y="282" width="625" height="127" fill="#287753" stroke="#1E6943" stroke-width="4"/>
<rect width="107" height="101" transform="translate(922 448)" fill="#1C4D37"/>
<path fill-rule="evenodd" clip-rule="evenodd" d="M992.289 485.646C993.237 484.697 993.237 483.16 992.289 482.211C991.34 481.263 989.803 481.263 988.854 482.211L976 495.065L963.146 482.211C962.198 481.263 960.66 481.263 959.711 482.211C958.763 483.16 958.763 484.697 959.711 485.646L972.566 498.5L959.711 511.354C958.763 512.302 958.763 513.84 959.711 514.789C960.66 515.737 962.198 515.737 963.146 514.789L976 501.934L988.854 514.789C989.803 515.737 991.34 515.737 992.289 514.789C993.237 513.84 993.237 512.302 992.289 511.354L979.435 498.5L992.289 485.646Z" fill="white"/>
<rect width="107" height="101" transform="translate(783 448)" fill="#1C4D37"/>
<path d="M859 482.746L827.492 514.254L815 498" stroke="white" stroke-width="6" stroke-linecap="round" stroke-linejoin="round"/>
<path d="M457.61 365.557C454.324 365.557 451.383 364.788 448.786 363.251C446.206 361.714 444.175 359.47 442.691 356.52C441.207 353.552 440.465 349.93 440.465 345.655C440.465 341.609 441.189 338.102 442.638 335.134C444.086 332.149 446.109 329.843 448.706 328.218C451.303 326.575 454.315 325.753 457.743 325.753C460.269 325.753 462.592 326.248 464.712 327.237C466.85 328.227 468.572 329.693 469.88 331.636C471.205 333.562 471.911 335.947 472 338.791H466.938C466.832 336.901 466.337 335.338 465.454 334.101C464.588 332.847 463.467 331.91 462.089 331.292C460.711 330.656 459.191 330.338 457.531 330.338C455.252 330.338 453.202 330.947 451.382 332.166C449.581 333.368 448.158 335.108 447.116 337.387C446.074 339.666 445.553 342.413 445.553 345.628C445.553 349.285 446.1 352.245 447.196 354.506C448.291 356.75 449.757 358.393 451.595 359.435C453.432 360.46 455.464 360.972 457.69 360.972C459.721 360.972 461.4 360.61 462.725 359.885C464.067 359.143 465.092 358.172 465.799 356.97C466.505 355.769 466.903 354.471 466.991 353.075H472C471.841 355.637 471.16 357.854 469.959 359.726C468.775 361.599 467.141 363.039 465.057 364.046C462.972 365.053 460.49 365.557 457.61 365.557ZM486.192 365.583C483.701 365.583 481.696 364.735 480.176 363.039C478.657 361.343 477.897 358.976 477.897 355.937V336.062H482.826V354.612C482.826 356.061 482.994 357.253 483.33 358.19C483.666 359.126 484.196 359.824 484.92 360.283C485.662 360.725 486.616 360.954 487.782 360.972C489.372 360.972 490.75 360.548 491.916 359.7C493.1 358.834 494.08 357.642 494.857 356.122V336.062H499.76V365H495.573L495.016 354.956L495.546 356.281C495.317 357.977 494.831 359.532 494.089 360.945C493.365 362.341 492.349 363.463 491.041 364.311C489.752 365.159 488.135 365.583 486.192 365.583ZM521.185 365.318C519.312 365.318 517.802 364.991 516.653 364.337C515.523 363.666 514.683 362.898 514.136 362.032C513.588 361.166 513.261 360.442 513.155 359.859L511.592 359.594L513.473 358.216C513.632 358.64 513.977 359.09 514.507 359.567C515.037 360.044 515.752 360.46 516.653 360.813C517.572 361.149 518.658 361.316 519.913 361.316C522.086 361.316 523.888 360.424 525.319 358.64C526.767 356.856 527.492 354.055 527.492 350.239C527.492 346.812 526.82 344.233 525.478 342.501C524.153 340.752 522.457 339.878 520.39 339.878C518.994 339.878 517.81 340.099 516.839 340.54C515.885 340.982 515.125 341.521 514.56 342.157C514.012 342.775 513.65 343.376 513.473 343.959V341.998C513.509 341.433 513.685 340.788 514.003 340.063C514.321 339.321 514.807 338.606 515.461 337.917C516.132 337.228 516.989 336.663 518.031 336.221C519.074 335.762 520.346 335.532 521.847 335.532C524.056 335.532 525.964 336.124 527.571 337.307C529.179 338.491 530.416 340.161 531.281 342.316C532.147 344.471 532.58 346.998 532.58 349.895C532.58 352.527 532.253 354.815 531.599 356.758C530.946 358.684 530.062 360.283 528.949 361.555C527.854 362.827 526.626 363.772 525.266 364.39C523.923 365.009 522.563 365.318 521.185 365.318ZM508.571 375.68V336.062H513.42L513.473 339.984V358.216L513.155 359.859L513.473 365.027L513.5 375.68H508.571ZM550.441 365.398C547.809 365.398 545.494 364.823 543.498 363.675C541.519 362.527 539.982 360.839 538.887 358.613C537.792 356.37 537.244 353.631 537.244 350.399C537.244 347.289 537.809 344.621 538.94 342.395C540.071 340.169 541.625 338.465 543.604 337.281C545.583 336.097 547.835 335.505 550.362 335.505C552.87 335.505 555.017 336.044 556.801 337.122C558.603 338.2 559.99 339.745 560.962 341.759C561.933 343.756 562.41 346.15 562.393 348.941C562.393 349.506 562.375 349.974 562.34 350.345C562.304 350.716 562.278 351.105 562.26 351.511H542.173C542.297 354.691 543.092 357.103 544.558 358.746C546.042 360.371 547.932 361.184 550.229 361.184C552.172 361.184 553.674 360.778 554.734 359.965C555.812 359.135 556.492 358.075 556.775 356.785H561.598C561.474 358.622 560.909 360.186 559.902 361.475C558.912 362.765 557.605 363.746 555.98 364.417C554.354 365.071 552.508 365.398 550.441 365.398ZM544.797 347.801H557.437C557.402 345.328 556.792 343.385 555.609 341.971C554.425 340.558 552.614 339.851 550.176 339.851C547.614 339.851 545.671 340.726 544.346 342.475C543.021 344.206 542.297 346.6 542.173 349.656C542.314 348.932 542.597 348.446 543.021 348.199C543.463 347.934 544.055 347.801 544.797 347.801ZM568.842 365V336.062H573.029L573.559 347.192L572.976 345.681C573.1 344.586 573.338 343.447 573.692 342.263C574.063 341.079 574.584 339.975 575.255 338.95C575.944 337.908 576.819 337.069 577.879 336.433C578.956 335.797 580.272 335.479 581.827 335.479C582.127 335.479 582.41 335.497 582.675 335.532C582.958 335.567 583.232 335.611 583.497 335.665V340.885C583.055 340.744 582.587 340.655 582.092 340.62C581.615 340.567 581.165 340.54 580.741 340.54C579.875 340.54 579 340.708 578.117 341.044C577.234 341.38 576.412 341.918 575.653 342.66C574.893 343.385 574.266 344.33 573.771 345.496V365H568.842Z" fill="white"/>
<line x1="592" y1="311" x2="592" y2="382" stroke="#2AB36B" stroke-width="6"/>
<path d="M559.204 194V178.166H562.133L562.51 184.27L562.206 183.429C562.273 182.791 562.399 182.144 562.583 181.486C562.776 180.829 563.047 180.225 563.395 179.674C563.752 179.123 564.207 178.683 564.758 178.355C565.318 178.016 566 177.847 566.802 177.847C566.995 177.847 567.189 177.857 567.382 177.876C567.575 177.895 567.754 177.929 567.919 177.977V181.631C567.59 181.525 567.237 181.457 566.86 181.428C566.493 181.39 566.154 181.37 565.845 181.37C565.468 181.37 565.062 181.448 564.627 181.602C564.192 181.747 563.791 181.97 563.424 182.269C563.056 182.569 562.79 182.941 562.626 183.386V194H559.204ZM576.44 194.218C574.98 194.218 573.709 193.903 572.626 193.275C571.544 192.647 570.703 191.723 570.103 190.505C569.504 189.278 569.204 187.775 569.204 185.996C569.204 184.314 569.518 182.864 570.147 181.646C570.785 180.428 571.655 179.495 572.757 178.847C573.859 178.19 575.106 177.861 576.498 177.861C578.006 177.861 579.296 178.19 580.369 178.847C581.452 179.495 582.283 180.428 582.863 181.646C583.443 182.864 583.733 184.314 583.733 185.996C583.733 187.775 583.409 189.278 582.762 190.505C582.124 191.723 581.254 192.647 580.152 193.275C579.05 193.903 577.812 194.218 576.44 194.218ZM576.498 191.303C577.609 191.303 578.518 190.887 579.224 190.056C579.929 189.225 580.282 187.871 580.282 185.996C580.282 184.256 579.939 182.951 579.253 182.081C578.566 181.211 577.629 180.776 576.44 180.776C575.328 180.776 574.419 181.206 573.714 182.066C573.018 182.927 572.67 184.237 572.67 185.996C572.67 187.784 573.023 189.118 573.728 189.998C574.444 190.868 575.367 191.303 576.498 191.303ZM593.234 194.218C591.774 194.218 590.503 193.903 589.42 193.275C588.338 192.647 587.497 191.723 586.897 190.505C586.298 189.278 585.998 187.775 585.998 185.996C585.998 184.314 586.312 182.864 586.941 181.646C587.579 180.428 588.449 179.495 589.551 178.847C590.653 178.19 591.9 177.861 593.292 177.861C594.8 177.861 596.09 178.19 597.163 178.847C598.246 179.495 599.077 180.428 599.657 181.646C600.237 182.864 600.527 184.314 600.527 185.996C600.527 187.775 600.203 189.278 599.556 190.505C598.918 191.723 598.048 192.647 596.946 193.275C595.844 193.903 594.606 194.218 593.234 194.218ZM593.292 191.303C594.403 191.303 595.312 190.887 596.018 190.056C596.723 189.225 597.076 187.871 597.076 185.996C597.076 184.256 596.733 182.951 596.047 182.081C595.36 181.211 594.423 180.776 593.234 180.776C592.122 180.776 591.213 181.206 590.508 182.066C589.812 182.927 589.464 184.237 589.464 185.996C589.464 187.784 589.817 189.118 590.522 189.998C591.238 190.868 592.161 191.303 593.292 191.303ZM608.453 194.232C607.196 194.232 606.215 193.913 605.509 193.275C604.813 192.627 604.465 191.704 604.465 190.505V182.501C604.465 182.182 604.533 181.897 604.668 181.646C604.803 181.385 605.002 181.221 605.263 181.153L604.465 178.804V178.383L605.234 173.642H607.844V189.65C607.844 190.211 607.964 190.602 608.206 190.824C608.457 191.047 608.921 191.158 609.598 191.158C610.033 191.158 610.434 191.158 610.802 191.158C611.169 191.148 611.502 191.139 611.802 191.129V194.044C611.299 194.131 610.748 194.184 610.149 194.203C609.55 194.222 608.984 194.232 608.453 194.232ZM602.392 181.153V178.166H611.831V181.153H602.392Z" fill="white"/>
<path d="M775.233 219V203.166H778.699L778.655 219H775.233ZM776.988 200.831C776.359 200.831 775.828 200.614 775.393 200.179C774.958 199.734 774.74 199.169 774.74 198.482C774.74 197.806 774.958 197.255 775.393 196.829C775.828 196.404 776.359 196.191 776.988 196.191C777.597 196.191 778.119 196.404 778.554 196.829C778.998 197.255 779.221 197.806 779.221 198.482C779.221 199.169 778.998 199.734 778.554 200.179C778.119 200.614 777.597 200.831 776.988 200.831ZM782.992 219V203.166H785.921L786.298 209.14L786.052 207.936C786.168 207.066 786.395 206.245 786.733 205.471C787.081 204.688 787.598 204.055 788.285 203.572C788.971 203.089 789.889 202.847 791.04 202.847C792.538 202.847 793.698 203.316 794.52 204.253C795.341 205.181 795.752 206.602 795.752 208.516V219H792.33V209.705C792.33 208.797 792.238 208.067 792.055 207.516C791.881 206.965 791.595 206.569 791.199 206.327C790.803 206.076 790.276 205.95 789.619 205.95C788.903 205.95 788.251 206.163 787.661 206.588C787.081 207.004 786.665 207.477 786.414 208.009V219H782.992ZM807.64 219.174C806.596 219.174 805.764 219 805.146 218.652C804.527 218.304 804.073 217.898 803.783 217.434C803.493 216.96 803.309 216.545 803.232 216.187L802.072 216.245L803.42 215.099C803.488 215.341 803.638 215.578 803.87 215.81C804.102 216.032 804.44 216.216 804.885 216.361C805.329 216.496 805.875 216.564 806.523 216.564C807.606 216.564 808.495 216.143 809.191 215.302C809.897 214.461 810.25 213.055 810.25 211.083C810.25 209.382 809.921 208.077 809.264 207.168C808.606 206.25 807.765 205.79 806.741 205.79C806.016 205.79 805.416 205.892 804.943 206.095C804.479 206.298 804.126 206.535 803.884 206.805C803.642 207.076 803.488 207.318 803.42 207.53V206.443C803.439 206.124 803.522 205.766 803.667 205.37C803.821 204.964 804.068 204.572 804.406 204.195C804.754 203.809 805.208 203.495 805.769 203.253C806.339 203.002 807.045 202.876 807.886 202.876C809.162 202.876 810.235 203.219 811.105 203.905C811.975 204.592 812.632 205.534 813.077 206.733C813.531 207.922 813.759 209.275 813.759 210.793C813.759 212.195 813.585 213.422 813.237 214.476C812.898 215.52 812.434 216.39 811.845 217.086C811.265 217.782 810.612 218.304 809.887 218.652C809.162 219 808.413 219.174 807.64 219.174ZM800.013 224.844V203.166H803.377L803.42 205.355V215.23L803.232 216.187L803.42 219.015V224.844H800.013ZM821.554 219.319C820.182 219.319 819.08 218.84 818.248 217.883C817.417 216.926 817.001 215.554 817.001 213.765V203.166H820.423V212.852C820.423 213.625 820.51 214.263 820.684 214.766C820.858 215.269 821.134 215.636 821.511 215.868C821.888 216.1 822.376 216.216 822.975 216.216C823.7 216.216 824.353 216.008 824.933 215.592C825.523 215.167 825.938 214.689 826.18 214.157V203.166H829.602V219H826.687L826.296 213.026L826.557 214.229C826.441 215.099 826.209 215.921 825.861 216.694C825.523 217.468 825.005 218.101 824.309 218.594C823.623 219.077 822.705 219.319 821.554 219.319ZM838.499 219.232C837.243 219.232 836.262 218.913 835.556 218.275C834.86 217.627 834.512 216.704 834.512 215.505V207.501C834.512 207.182 834.58 206.897 834.715 206.646C834.85 206.385 835.048 206.221 835.309 206.153L834.512 203.804V203.383L835.28 198.642H837.89V214.65C837.89 215.211 838.011 215.602 838.253 215.824C838.504 216.047 838.968 216.158 839.645 216.158C840.08 216.158 840.481 216.158 840.848 216.158C841.216 216.148 841.549 216.139 841.849 216.129V219.044C841.346 219.131 840.795 219.184 840.196 219.203C839.597 219.222 839.031 219.232 838.499 219.232ZM832.438 206.153V203.166H841.878V206.153H832.438Z" fill="white"/>
<path d="M645.526 641.247C644.337 641.247 643.273 641.073 642.336 640.724C641.408 640.376 640.668 639.84 640.117 639.115C639.576 638.38 639.276 637.443 639.218 636.302H642.524C642.65 637.114 642.974 637.689 643.496 638.027C644.027 638.366 644.68 638.535 645.453 638.535C646.014 638.535 646.512 638.482 646.947 638.375C647.391 638.259 647.739 638.071 647.991 637.81C648.252 637.539 648.382 637.177 648.382 636.722C648.382 636.403 648.31 636.142 648.165 635.939C648.029 635.727 647.817 635.543 647.527 635.388C647.246 635.234 646.889 635.089 646.454 634.953C646.028 634.818 645.535 634.668 644.975 634.504C643.969 634.214 643.056 633.871 642.234 633.474C641.412 633.078 640.76 632.561 640.277 631.923C639.793 631.275 639.552 630.434 639.552 629.4C639.552 627.989 640.074 626.887 641.118 626.094C642.162 625.292 643.505 624.89 645.149 624.89C646.212 624.89 647.169 625.045 648.02 625.355C648.88 625.654 649.586 626.157 650.137 626.862C650.688 627.558 651.045 628.506 651.21 629.704L647.904 629.69C647.759 629.129 647.546 628.699 647.266 628.399C646.985 628.09 646.661 627.877 646.294 627.761C645.936 627.636 645.545 627.573 645.12 627.573C644.656 627.573 644.254 627.645 643.916 627.79C643.578 627.935 643.317 628.138 643.133 628.399C642.949 628.66 642.858 628.975 642.858 629.342C642.858 629.767 642.978 630.125 643.22 630.415C643.471 630.695 643.844 630.942 644.337 631.154C644.839 631.357 645.463 631.57 646.207 631.792C646.806 631.966 647.425 632.16 648.063 632.372C648.701 632.575 649.296 632.836 649.847 633.155C650.398 633.474 650.842 633.9 651.181 634.431C651.519 634.953 651.688 635.635 651.688 636.476C651.688 637.974 651.123 639.144 649.992 639.985C648.87 640.826 647.382 641.247 645.526 641.247ZM659.31 641.319C657.938 641.319 656.836 640.84 656.004 639.883C655.173 638.926 654.757 637.554 654.757 635.765V625.166H658.179V634.852C658.179 635.625 658.266 636.263 658.44 636.766C658.614 637.269 658.89 637.636 659.267 637.868C659.644 638.1 660.132 638.216 660.731 638.216C661.456 638.216 662.109 638.008 662.689 637.592C663.278 637.167 663.694 636.689 663.936 636.157V625.166H667.358V641H664.443L664.052 635.026L664.313 636.229C664.197 637.099 663.965 637.921 663.617 638.694C663.278 639.468 662.761 640.101 662.065 640.594C661.379 641.077 660.461 641.319 659.31 641.319ZM679.28 641.174C678.236 641.174 677.405 641 676.786 640.652C676.168 640.304 675.713 639.898 675.423 639.434C675.133 638.96 674.95 638.545 674.872 638.187L674.118 637.505L675.061 637.099C675.129 637.341 675.278 637.578 675.51 637.81C675.752 638.032 676.09 638.216 676.525 638.361C676.97 638.496 677.516 638.564 678.164 638.564C679.247 638.564 680.141 638.143 680.846 637.302C681.552 636.461 681.905 635.065 681.905 633.112C681.905 631.353 681.571 630.028 680.904 629.139C680.247 628.24 679.406 627.79 678.381 627.79C677.656 627.79 677.057 627.892 676.583 628.095C676.119 628.298 675.767 628.535 675.525 628.805C675.283 629.076 675.129 629.318 675.061 629.53L674.843 629.327L675.075 628.776C675.124 628.042 675.307 627.384 675.626 626.804C675.955 626.215 676.438 625.746 677.076 625.398C677.724 625.05 678.541 624.876 679.527 624.876C680.803 624.876 681.876 625.219 682.746 625.905C683.616 626.582 684.273 627.515 684.718 628.704C685.172 629.883 685.399 631.246 685.399 632.793C685.399 634.195 685.225 635.422 684.877 636.476C684.539 637.52 684.075 638.39 683.485 639.086C682.905 639.782 682.253 640.304 681.528 640.652C680.803 641 680.054 641.174 679.28 641.174ZM671.682 641L671.668 618.438H675.075V625.615L675.09 637.433L675.336 637.984L675.061 638.549L674.916 641H671.682ZM688.858 641V625.166H691.802L692.179 631.14L691.932 629.936C692.048 629.066 692.275 628.245 692.614 627.471C692.952 626.688 693.464 626.055 694.151 625.572C694.837 625.089 695.751 624.847 696.891 624.847C698.158 624.847 699.177 625.209 699.951 625.934C700.734 626.65 701.217 627.752 701.401 629.24L701.473 629.472V641H698.037V631.705C698.037 630.797 697.95 630.067 697.776 629.516C697.602 628.965 697.326 628.569 696.949 628.327C696.582 628.076 696.094 627.95 695.485 627.95C694.769 627.95 694.122 628.163 693.542 628.588C692.962 629.004 692.546 629.477 692.295 630.009V641H688.858ZM707.215 641V631.705C707.215 630.797 707.128 630.067 706.954 629.516C706.78 628.965 706.505 628.569 706.128 628.327C705.76 628.076 705.272 627.95 704.663 627.95C703.948 627.95 703.3 628.163 702.72 628.588C702.14 629.004 701.725 629.477 701.473 630.009L701.444 631.14L701.212 630.197C701.309 629.337 701.517 628.501 701.836 627.689C702.164 626.867 702.667 626.191 703.344 625.659C704.02 625.118 704.929 624.847 706.07 624.847C707.5 624.847 708.622 625.316 709.434 626.253C710.246 627.181 710.652 628.602 710.652 630.516V641H707.215ZM714.914 641V625.166H718.379L718.336 641H714.914ZM716.668 622.831C716.04 622.831 715.508 622.614 715.073 622.179C714.638 621.734 714.421 621.169 714.421 620.482C714.421 619.806 714.638 619.255 715.073 618.829C715.508 618.404 716.04 618.191 716.668 618.191C717.277 618.191 717.799 618.404 718.234 618.829C718.679 619.255 718.901 619.806 718.901 620.482C718.901 621.169 718.679 621.734 718.234 622.179C717.799 622.614 717.277 622.831 716.668 622.831ZM727.204 641.232C725.947 641.232 724.966 640.913 724.26 640.275C723.564 639.627 723.216 638.704 723.216 637.505V629.501C723.216 629.182 723.284 628.897 723.419 628.646C723.554 628.385 723.753 628.221 724.014 628.153L723.216 625.804V625.383L723.985 620.642H726.595V636.65C726.595 637.211 726.715 637.602 726.957 637.824C727.208 638.047 727.672 638.158 728.349 638.158C728.784 638.158 729.185 638.158 729.553 638.158C729.92 638.148 730.253 638.139 730.553 638.129V641.044C730.05 641.131 729.499 641.184 728.9 641.203C728.301 641.222 727.735 641.232 727.204 641.232ZM721.143 628.153V625.166H730.582V628.153H721.143ZM647.817 686.174C646.773 686.174 645.941 686 645.322 685.652C644.704 685.304 644.25 684.898 643.96 684.434C643.67 683.96 643.486 683.545 643.409 683.187L642.655 682.505L643.597 682.099C643.665 682.341 643.815 682.578 644.047 682.81C644.288 683.032 644.627 683.216 645.062 683.361C645.506 683.496 646.052 683.564 646.7 683.564C647.783 683.564 648.677 683.143 649.383 682.302C650.088 681.461 650.441 680.065 650.441 678.112C650.441 676.353 650.108 675.028 649.441 674.139C648.783 673.24 647.942 672.79 646.918 672.79C646.193 672.79 645.593 672.892 645.12 673.095C644.656 673.298 644.303 673.535 644.061 673.805C643.819 674.076 643.665 674.318 643.597 674.53L643.38 674.327L643.612 673.776C643.66 673.042 643.844 672.384 644.163 671.804C644.491 671.215 644.975 670.746 645.613 670.398C646.26 670.05 647.077 669.876 648.063 669.876C649.339 669.876 650.412 670.219 651.282 670.905C652.152 671.582 652.809 672.515 653.254 673.704C653.708 674.883 653.936 676.246 653.936 677.793C653.936 679.195 653.762 680.422 653.414 681.476C653.075 682.52 652.611 683.39 652.022 684.086C651.442 684.782 650.789 685.304 650.064 685.652C649.339 686 648.59 686.174 647.817 686.174ZM640.219 686L640.204 663.438H643.612V670.615L643.626 682.433L643.873 682.984L643.597 683.549L643.452 686H640.219ZM661.746 686.319C660.373 686.319 659.271 685.84 658.44 684.883C657.608 683.926 657.193 682.554 657.193 680.765V670.166H660.615V679.852C660.615 680.625 660.702 681.263 660.876 681.766C661.05 682.269 661.325 682.636 661.702 682.868C662.079 683.1 662.567 683.216 663.167 683.216C663.892 683.216 664.544 683.008 665.124 682.592C665.714 682.167 666.13 681.689 666.371 681.157V670.166H669.793V686H666.879L666.487 680.026L666.748 681.229C666.632 682.099 666.4 682.921 666.052 683.694C665.714 684.468 665.197 685.101 664.501 685.594C663.814 686.077 662.896 686.319 661.746 686.319ZM678.691 686.232C677.434 686.232 676.453 685.913 675.747 685.275C675.051 684.627 674.703 683.704 674.703 682.505V674.501C674.703 674.182 674.771 673.897 674.906 673.646C675.042 673.385 675.24 673.221 675.501 673.153L674.703 670.804V670.383L675.472 665.642H678.082V681.65C678.082 682.211 678.203 682.602 678.444 682.824C678.696 683.047 679.16 683.158 679.836 683.158C680.271 683.158 680.673 683.158 681.04 683.158C681.407 683.148 681.741 683.139 682.04 683.129V686.044C681.538 686.131 680.987 686.184 680.387 686.203C679.788 686.222 679.223 686.232 678.691 686.232ZM672.63 673.153V670.166H682.069V673.153H672.63ZM690.132 686.232C688.876 686.232 687.894 685.913 687.189 685.275C686.493 684.627 686.145 683.704 686.145 682.505V674.501C686.145 674.182 686.212 673.897 686.348 673.646C686.483 673.385 686.681 673.221 686.942 673.153L686.145 670.804V670.383L686.913 665.642H689.523V681.65C689.523 682.211 689.644 682.602 689.886 682.824C690.137 683.047 690.601 683.158 691.278 683.158C691.713 683.158 692.114 683.158 692.481 683.158C692.849 683.148 693.182 683.139 693.482 683.129V686.044C692.979 686.131 692.428 686.184 691.829 686.203C691.229 686.222 690.664 686.232 690.132 686.232ZM684.071 673.153V670.166H693.511V673.153H684.071ZM702.582 686.218C701.123 686.218 699.851 685.903 698.769 685.275C697.686 684.647 696.845 683.723 696.246 682.505C695.646 681.278 695.347 679.775 695.347 677.996C695.347 676.314 695.661 674.864 696.289 673.646C696.927 672.428 697.797 671.495 698.899 670.847C700.001 670.19 701.248 669.861 702.64 669.861C704.148 669.861 705.439 670.19 706.512 670.847C707.594 671.495 708.426 672.428 709.006 673.646C709.586 674.864 709.876 676.314 709.876 677.996C709.876 679.775 709.552 681.278 708.904 682.505C708.266 683.723 707.396 684.647 706.294 685.275C705.192 685.903 703.955 686.218 702.582 686.218ZM702.64 683.303C703.752 683.303 704.661 682.887 705.366 682.056C706.072 681.225 706.425 679.871 706.425 677.996C706.425 676.256 706.082 674.951 705.395 674.081C704.709 673.211 703.771 672.776 702.582 672.776C701.471 672.776 700.562 673.206 699.856 674.066C699.16 674.927 698.812 676.237 698.812 677.996C698.812 679.784 699.165 681.118 699.871 681.998C700.586 682.868 701.509 683.303 702.64 683.303ZM713.185 686V670.166H716.114L716.491 676.14L716.245 674.936C716.361 674.066 716.588 673.245 716.926 672.471C717.274 671.688 717.792 671.055 718.478 670.572C719.164 670.089 720.083 669.847 721.233 669.847C722.731 669.847 723.891 670.316 724.713 671.253C725.535 672.181 725.945 673.602 725.945 675.516V686H722.523V676.705C722.523 675.797 722.432 675.067 722.248 674.516C722.074 673.965 721.789 673.569 721.392 673.327C720.996 673.076 720.469 672.95 719.812 672.95C719.097 672.95 718.444 673.163 717.854 673.588C717.274 674.004 716.859 674.477 716.607 675.009V686H713.185Z" fill="white"/>
<path d="M1077.63 641.276C1076.06 641.276 1074.72 640.932 1073.6 640.246C1072.48 639.55 1071.61 638.583 1071.02 637.346C1070.43 636.109 1070.13 634.673 1070.13 633.039C1070.13 631.319 1070.44 629.849 1071.04 628.631C1071.65 627.413 1072.5 626.485 1073.58 625.847C1074.66 625.2 1075.91 624.876 1077.32 624.876C1078.72 624.876 1079.9 625.137 1080.85 625.659C1081.8 626.171 1082.52 626.862 1082.99 627.732C1083.47 628.593 1083.68 629.555 1083.64 630.618H1080.35C1080.34 630.193 1080.28 629.806 1080.15 629.458C1080.02 629.1 1079.84 628.801 1079.59 628.559C1079.34 628.308 1079.03 628.114 1078.66 627.979C1078.28 627.844 1077.84 627.776 1077.34 627.776C1075.98 627.766 1075.02 628.23 1074.45 629.168C1073.89 630.106 1073.61 631.372 1073.61 632.967C1073.61 634.784 1073.95 636.142 1074.63 637.041C1075.31 637.931 1076.38 638.38 1077.83 638.39C1078.17 638.39 1078.54 638.293 1078.93 638.1C1079.34 637.897 1079.68 637.612 1079.96 637.244C1080.25 636.867 1080.39 636.418 1080.38 635.896H1083.64C1083.68 637.008 1083.42 637.965 1082.85 638.767C1082.29 639.569 1081.54 640.188 1080.61 640.623C1079.69 641.058 1078.69 641.276 1077.63 641.276ZM1090.71 641.174C1089.74 641.174 1088.89 640.995 1088.14 640.637C1087.4 640.27 1086.81 639.763 1086.39 639.115C1085.97 638.467 1085.76 637.718 1085.76 636.867C1085.76 635.93 1085.93 635.156 1086.27 634.547C1086.61 633.938 1087.1 633.455 1087.74 633.097C1088.38 632.73 1089.14 632.45 1090.01 632.256C1090.63 632.121 1091.28 632.01 1091.97 631.923C1092.67 631.836 1093.31 631.768 1093.9 631.72C1094.49 631.662 1094.94 631.623 1095.26 631.604V630.966C1095.26 629.893 1095.04 629.091 1094.61 628.559C1094.18 628.018 1093.46 627.747 1092.43 627.747C1091.78 627.747 1091.23 627.829 1090.78 627.993C1090.34 628.148 1090 628.448 1089.77 628.892C1089.54 629.327 1089.42 629.965 1089.4 630.806H1086.29C1086.18 629.443 1086.37 628.327 1086.87 627.457C1087.37 626.577 1088.11 625.93 1089.1 625.514C1090.1 625.089 1091.27 624.876 1092.62 624.876C1093.43 624.876 1094.18 624.968 1094.88 625.151C1095.6 625.325 1096.23 625.63 1096.78 626.065C1097.34 626.49 1097.77 627.075 1098.09 627.819C1098.41 628.564 1098.57 629.506 1098.57 630.647V641H1095.22L1095.26 637.447C1095.08 638.52 1094.61 639.41 1093.87 640.115C1093.13 640.821 1092.07 641.174 1090.71 641.174ZM1091.62 638.593C1092.13 638.593 1092.63 638.506 1093.14 638.332C1093.67 638.158 1094.12 637.907 1094.51 637.578C1094.9 637.249 1095.16 636.863 1095.26 636.418V633.518C1094.88 633.557 1094.42 633.624 1093.88 633.721C1093.36 633.818 1092.91 633.905 1092.54 633.982C1091.45 634.204 1090.67 634.499 1090.19 634.866C1089.71 635.224 1089.48 635.775 1089.48 636.519C1089.48 636.945 1089.57 637.317 1089.77 637.636C1089.97 637.945 1090.24 638.182 1090.56 638.346C1090.89 638.511 1091.25 638.593 1091.62 638.593ZM1102.81 641V625.166H1105.74L1106.12 631.14L1105.87 629.936C1105.98 629.066 1106.21 628.245 1106.55 627.471C1106.9 626.688 1107.42 626.055 1108.1 625.572C1108.79 625.089 1109.71 624.847 1110.86 624.847C1112.36 624.847 1113.52 625.316 1114.34 626.253C1115.16 627.181 1115.57 628.602 1115.57 630.516V641H1112.15V631.705C1112.15 630.797 1112.06 630.067 1111.87 629.516C1111.7 628.965 1111.41 628.569 1111.02 628.327C1110.62 628.076 1110.09 627.95 1109.44 627.95C1108.72 627.95 1108.07 628.163 1107.48 628.588C1106.9 629.004 1106.48 629.477 1106.23 630.009V641H1102.81ZM1126.25 641.276C1124.69 641.276 1123.34 640.932 1122.22 640.246C1121.1 639.55 1120.24 638.583 1119.64 637.346C1119.05 636.109 1118.76 634.673 1118.76 633.039C1118.76 631.319 1119.06 629.849 1119.67 628.631C1120.28 627.413 1121.13 626.485 1122.21 625.847C1123.29 625.2 1124.54 624.876 1125.95 624.876C1127.35 624.876 1128.53 625.137 1129.47 625.659C1130.43 626.171 1131.14 626.862 1131.62 627.732C1132.09 628.593 1132.31 629.555 1132.27 630.618H1128.98C1128.97 630.193 1128.9 629.806 1128.78 629.458C1128.65 629.1 1128.46 628.801 1128.21 628.559C1127.97 628.308 1127.66 628.114 1127.28 627.979C1126.91 627.844 1126.47 627.776 1125.96 627.776C1124.61 627.766 1123.65 628.23 1123.08 629.168C1122.52 630.106 1122.24 631.372 1122.24 632.967C1122.24 634.784 1122.58 636.142 1123.25 637.041C1123.94 637.931 1125.01 638.38 1126.46 638.39C1126.79 638.39 1127.16 638.293 1127.56 638.1C1127.96 637.897 1128.31 637.612 1128.59 637.244C1128.88 636.867 1129.02 636.418 1129.01 635.896H1132.27C1132.31 637.008 1132.04 637.965 1131.47 638.767C1130.91 639.569 1130.17 640.188 1129.24 640.623C1128.31 641.058 1127.32 641.276 1126.25 641.276ZM1141.73 641.218C1140.2 641.218 1138.88 640.908 1137.75 640.289C1136.64 639.661 1135.79 638.738 1135.19 637.52C1134.59 636.302 1134.29 634.808 1134.29 633.039C1134.29 631.319 1134.6 629.849 1135.23 628.631C1135.87 627.404 1136.74 626.471 1137.86 625.833C1138.97 625.185 1140.24 624.861 1141.68 624.861C1143.1 624.861 1144.32 625.142 1145.32 625.702C1146.34 626.263 1147.11 627.094 1147.64 628.196C1148.17 629.289 1148.44 630.632 1148.44 632.227C1148.44 632.537 1148.43 632.793 1148.41 632.996C1148.4 633.199 1148.39 633.441 1148.37 633.721H1137.7C1137.78 635.335 1138.18 636.524 1138.88 637.288C1139.59 638.042 1140.46 638.419 1141.48 638.419C1142.44 638.419 1143.17 638.216 1143.67 637.81C1144.18 637.394 1144.51 636.93 1144.66 636.418H1147.96C1147.87 637.433 1147.56 638.303 1147 639.028C1146.45 639.743 1145.72 640.289 1144.82 640.666C1143.92 641.034 1142.89 641.218 1141.73 641.218ZM1139.26 631.386H1145.03C1145 630.226 1144.72 629.332 1144.19 628.704C1143.66 628.066 1142.79 627.747 1141.57 627.747C1140.3 627.747 1139.36 628.172 1138.74 629.023C1138.12 629.864 1137.77 631.029 1137.7 632.517C1137.77 632.082 1137.94 631.788 1138.19 631.633C1138.44 631.469 1138.8 631.386 1139.26 631.386ZM1151.55 641V618.438H1154.97V641H1151.55ZM1078.82 686.174C1077.77 686.174 1076.94 686 1076.32 685.652C1075.7 685.304 1075.25 684.898 1074.96 684.434C1074.67 683.96 1074.49 683.545 1074.41 683.187L1073.65 682.505L1074.6 682.099C1074.66 682.341 1074.81 682.578 1075.05 682.81C1075.29 683.032 1075.63 683.216 1076.06 683.361C1076.51 683.496 1077.05 683.564 1077.7 683.564C1078.78 683.564 1079.68 683.143 1080.38 682.302C1081.09 681.461 1081.44 680.065 1081.44 678.112C1081.44 676.353 1081.11 675.028 1080.44 674.139C1079.78 673.24 1078.94 672.79 1077.92 672.79C1077.19 672.79 1076.59 672.892 1076.12 673.095C1075.66 673.298 1075.3 673.535 1075.06 673.805C1074.82 674.076 1074.66 674.318 1074.6 674.53L1074.38 674.327L1074.61 673.776C1074.66 673.042 1074.84 672.384 1075.16 671.804C1075.49 671.215 1075.97 670.746 1076.61 670.398C1077.26 670.05 1078.08 669.876 1079.06 669.876C1080.34 669.876 1081.41 670.219 1082.28 670.905C1083.15 671.582 1083.81 672.515 1084.25 673.704C1084.71 674.883 1084.94 676.246 1084.94 677.793C1084.94 679.195 1084.76 680.422 1084.41 681.476C1084.08 682.52 1083.61 683.39 1083.02 684.086C1082.44 684.782 1081.79 685.304 1081.06 685.652C1080.34 686 1079.59 686.174 1078.82 686.174ZM1071.22 686L1071.2 663.438H1074.61V670.615L1074.63 682.433L1074.87 682.984L1074.6 683.549L1074.45 686H1071.22ZM1092.75 686.319C1091.37 686.319 1090.27 685.84 1089.44 684.883C1088.61 683.926 1088.19 682.554 1088.19 680.765V670.166H1091.61V679.852C1091.61 680.625 1091.7 681.263 1091.88 681.766C1092.05 682.269 1092.33 682.636 1092.7 682.868C1093.08 683.1 1093.57 683.216 1094.17 683.216C1094.89 683.216 1095.54 683.008 1096.12 682.592C1096.71 682.167 1097.13 681.689 1097.37 681.157V670.166H1100.79V686H1097.88L1097.49 680.026L1097.75 681.229C1097.63 682.099 1097.4 682.921 1097.05 683.694C1096.71 684.468 1096.2 685.101 1095.5 685.594C1094.81 686.077 1093.9 686.319 1092.75 686.319ZM1109.69 686.232C1108.43 686.232 1107.45 685.913 1106.75 685.275C1106.05 684.627 1105.7 683.704 1105.7 682.505V674.501C1105.7 674.182 1105.77 673.897 1105.91 673.646C1106.04 673.385 1106.24 673.221 1106.5 673.153L1105.7 670.804V670.383L1106.47 665.642H1109.08V681.65C1109.08 682.211 1109.2 682.602 1109.44 682.824C1109.7 683.047 1110.16 683.158 1110.84 683.158C1111.27 683.158 1111.67 683.158 1112.04 683.158C1112.41 683.148 1112.74 683.139 1113.04 683.129V686.044C1112.54 686.131 1111.99 686.184 1111.39 686.203C1110.79 686.222 1110.22 686.232 1109.69 686.232ZM1103.63 673.153V670.166H1113.07V673.153H1103.63ZM1121.13 686.232C1119.88 686.232 1118.89 685.913 1118.19 685.275C1117.49 684.627 1117.14 683.704 1117.14 682.505V674.501C1117.14 674.182 1117.21 673.897 1117.35 673.646C1117.48 673.385 1117.68 673.221 1117.94 673.153L1117.14 670.804V670.383L1117.91 665.642H1120.52V681.65C1120.52 682.211 1120.64 682.602 1120.89 682.824C1121.14 683.047 1121.6 683.158 1122.28 683.158C1122.71 683.158 1123.11 683.158 1123.48 683.158C1123.85 683.148 1124.18 683.139 1124.48 683.129V686.044C1123.98 686.131 1123.43 686.184 1122.83 686.203C1122.23 686.222 1121.66 686.232 1121.13 686.232ZM1115.07 673.153V670.166H1124.51V673.153H1115.07ZM1133.58 686.218C1132.12 686.218 1130.85 685.903 1129.77 685.275C1128.69 684.647 1127.85 683.723 1127.25 682.505C1126.65 681.278 1126.35 679.775 1126.35 677.996C1126.35 676.314 1126.66 674.864 1127.29 673.646C1127.93 672.428 1128.8 671.495 1129.9 670.847C1131 670.19 1132.25 669.861 1133.64 669.861C1135.15 669.861 1136.44 670.19 1137.51 670.847C1138.59 671.495 1139.43 672.428 1140.01 673.646C1140.59 674.864 1140.88 676.314 1140.88 677.996C1140.88 679.775 1140.55 681.278 1139.9 682.505C1139.27 683.723 1138.4 684.647 1137.29 685.275C1136.19 685.903 1134.95 686.218 1133.58 686.218ZM1133.64 683.303C1134.75 683.303 1135.66 682.887 1136.37 682.056C1137.07 681.225 1137.42 679.871 1137.42 677.996C1137.42 676.256 1137.08 674.951 1136.4 674.081C1135.71 673.211 1134.77 672.776 1133.58 672.776C1132.47 672.776 1131.56 673.206 1130.86 674.066C1130.16 674.927 1129.81 676.237 1129.81 677.996C1129.81 679.784 1130.17 681.118 1130.87 681.998C1131.59 682.868 1132.51 683.303 1133.64 683.303ZM1144.19 686V670.166H1147.11L1147.49 676.14L1147.24 674.936C1147.36 674.066 1147.59 673.245 1147.93 672.471C1148.27 671.688 1148.79 671.055 1149.48 670.572C1150.16 670.089 1151.08 669.847 1152.23 669.847C1153.73 669.847 1154.89 670.316 1155.71 671.253C1156.53 672.181 1156.95 673.602 1156.95 675.516V686H1153.52V676.705C1153.52 675.797 1153.43 675.067 1153.25 674.516C1153.07 673.965 1152.79 673.569 1152.39 673.327C1152 673.076 1151.47 672.95 1150.81 672.95C1150.1 672.95 1149.44 673.163 1148.85 673.588C1148.27 674.004 1147.86 674.477 1147.61 675.009V686H1144.19Z" fill="white"/>
<path d="M206.105 611.174C205.138 611.174 204.282 610.995 203.538 610.637C202.794 610.27 202.209 609.763 201.784 609.115C201.368 608.467 201.16 607.718 201.16 606.867C201.16 605.93 201.329 605.156 201.668 604.547C202.006 603.938 202.494 603.455 203.132 603.097C203.78 602.73 204.539 602.45 205.409 602.256C206.027 602.121 206.68 602.01 207.366 601.923C208.062 601.836 208.705 601.768 209.295 601.72C209.884 601.662 210.339 601.623 210.658 601.604V600.966C210.658 599.893 210.44 599.091 210.005 598.559C209.58 598.018 208.855 597.747 207.83 597.747C207.173 597.747 206.622 597.829 206.177 597.993C205.732 598.148 205.394 598.448 205.162 598.892C204.94 599.327 204.819 599.965 204.8 600.806H201.682C201.576 599.443 201.769 598.327 202.262 597.457C202.765 596.577 203.509 595.93 204.495 595.514C205.491 595.089 206.665 594.876 208.019 594.876C208.821 594.876 209.575 594.968 210.281 595.151C210.996 595.325 211.629 595.63 212.18 596.065C212.731 596.49 213.166 597.075 213.485 597.819C213.804 598.564 213.964 599.506 213.964 600.647V611H210.614L210.658 607.447C210.474 608.52 210.01 609.41 209.266 610.115C208.521 610.821 207.468 611.174 206.105 611.174ZM207.018 608.593C207.521 608.593 208.028 608.506 208.541 608.332C209.063 608.158 209.517 607.907 209.904 607.578C210.3 607.249 210.551 606.863 210.658 606.418V603.518C210.271 603.557 209.812 603.624 209.28 603.721C208.758 603.818 208.309 603.905 207.932 603.982C206.849 604.204 206.066 604.499 205.583 604.866C205.109 605.224 204.872 605.775 204.872 606.519C204.872 606.945 204.969 607.317 205.162 607.636C205.365 607.945 205.631 608.182 205.96 608.346C206.288 608.511 206.641 608.593 207.018 608.593ZM218.177 611V595.166H221.106L221.483 601.27L221.178 600.429C221.246 599.791 221.371 599.144 221.555 598.486C221.748 597.829 222.019 597.225 222.367 596.674C222.725 596.123 223.179 595.683 223.73 595.355C224.291 595.016 224.972 594.847 225.775 594.847C225.968 594.847 226.161 594.857 226.355 594.876C226.548 594.895 226.727 594.929 226.891 594.977V598.631C226.562 598.525 226.21 598.457 225.833 598.428C225.465 598.39 225.127 598.37 224.818 598.37C224.441 598.37 224.035 598.448 223.6 598.602C223.165 598.747 222.763 598.97 222.396 599.269C222.029 599.569 221.763 599.941 221.599 600.386V611H218.177ZM235.599 611.218C234.072 611.218 232.747 610.908 231.626 610.289C230.514 609.661 229.659 608.738 229.059 607.52C228.46 606.302 228.16 604.808 228.16 603.039C228.16 601.319 228.475 599.849 229.103 598.631C229.741 597.404 230.616 596.471 231.727 595.833C232.839 595.185 234.115 594.861 235.555 594.861C236.976 594.861 238.19 595.142 239.195 595.702C240.21 596.263 240.983 597.094 241.515 598.196C242.047 599.289 242.312 600.632 242.312 602.227C242.312 602.537 242.303 602.793 242.283 602.996C242.274 603.199 242.259 603.441 242.24 603.721H231.568C231.655 605.335 232.051 606.524 232.757 607.288C233.463 608.042 234.328 608.419 235.352 608.419C236.309 608.419 237.039 608.216 237.542 607.81C238.054 607.394 238.383 606.93 238.528 606.418H241.834C241.747 607.433 241.428 608.303 240.877 609.028C240.326 609.743 239.596 610.289 238.687 610.666C237.788 611.034 236.759 611.218 235.599 611.218ZM233.134 601.386H238.905C238.876 600.226 238.596 599.332 238.064 598.704C237.532 598.066 236.657 597.747 235.439 597.747C234.173 597.747 233.231 598.172 232.612 599.023C231.993 599.864 231.645 601.029 231.568 602.517C231.645 602.082 231.81 601.788 232.061 601.633C232.312 601.469 232.67 601.386 233.134 601.386ZM249.605 611.174C248.638 611.174 247.782 610.995 247.038 610.637C246.294 610.27 245.709 609.763 245.284 609.115C244.868 608.467 244.66 607.718 244.66 606.867C244.66 605.93 244.829 605.156 245.168 604.547C245.506 603.938 245.994 603.455 246.632 603.097C247.28 602.73 248.039 602.45 248.909 602.256C249.527 602.121 250.18 602.01 250.866 601.923C251.562 601.836 252.205 601.768 252.795 601.72C253.384 601.662 253.839 601.623 254.158 601.604V600.966C254.158 599.893 253.94 599.091 253.505 598.559C253.08 598.018 252.355 597.747 251.33 597.747C250.673 597.747 250.122 597.829 249.677 597.993C249.232 598.148 248.894 598.448 248.662 598.892C248.44 599.327 248.319 599.965 248.3 600.806H245.182C245.076 599.443 245.269 598.327 245.762 597.457C246.265 596.577 247.009 595.93 247.995 595.514C248.991 595.089 250.165 594.876 251.519 594.876C252.321 594.876 253.075 594.968 253.781 595.151C254.496 595.325 255.129 595.63 255.68 596.065C256.231 596.49 256.666 597.075 256.985 597.819C257.304 598.564 257.464 599.506 257.464 600.647V611H254.114L254.158 607.447C253.974 608.52 253.51 609.41 252.766 610.115C252.021 610.821 250.968 611.174 249.605 611.174ZM250.518 608.593C251.021 608.593 251.528 608.506 252.041 608.332C252.563 608.158 253.017 607.907 253.404 607.578C253.8 607.249 254.051 606.863 254.158 606.418V603.518C253.771 603.557 253.312 603.624 252.78 603.721C252.258 603.818 251.809 603.905 251.432 603.982C250.349 604.204 249.566 604.499 249.083 604.866C248.609 605.224 248.372 605.775 248.372 606.519C248.372 606.945 248.469 607.317 248.662 607.636C248.865 607.945 249.131 608.182 249.46 608.346C249.788 608.511 250.141 608.593 250.518 608.593Z" fill="white"/>
<path d="M590 267.047L601.547 255.5L590 243.953L578.453 255.5L590 267.047ZM588 204L588 255.5L592 255.5L592 204L588 204Z" fill="#2CFF80"/>
<path d="M808 336.047L819.547 324.5L808 312.953L796.453 324.5L808 336.047ZM806 236V324.5H810V236H806Z" fill="#2CFF80"/>
<path d="M976 537.453L964.453 549L976 560.547L987.547 549L976 537.453ZM976 646.5H974V648.5H976V646.5ZM974 549V646.5H978V549H974ZM976 648.5H1042V644.5H976V648.5Z" fill="#2CFF80"/>
<path d="M837 537.453L825.453 549L837 560.547L848.547 549L837 537.453ZM837 646.5V648.5H839V646.5H837ZM835 549V646.5H839V549H835ZM837 644.5H758.5V648.5H837V644.5Z" fill="#2CFF80"/>
<path d="M233 359V357H231V359H233ZM413.047 359L401.5 347.453L389.953 359L401.5 370.547L413.047 359ZM235 572V359H231V572H235ZM233 361H401.5V357H233V361Z" fill="#2CFF80"/>
</svg>
