<svg width="1456" height="812" viewBox="0 0 1456 812" fill="none" xmlns="http://www.w3.org/2000/svg">
<rect opacity="0.5" x="198" y="269" width="216" height="274" fill="#16402D"/>
<rect x="479" y="269" width="216" height="274" fill="#1C4D37"/>
<rect opacity="0.5" x="760" y="269" width="216" height="274" fill="#16402D"/>
<rect opacity="0.5" x="1041" y="269" width="216" height="274" fill="#16402D"/>
<path d="M305.967 450L306.027 372.531L308.704 363.487H317.391V450H305.967ZM287.939 382.17V371.043C290.001 371.043 291.945 370.984 293.77 370.865C295.634 370.746 297.34 370.468 298.887 370.032C300.87 369.516 302.655 368.763 304.242 367.771C305.868 366.74 307.355 365.312 308.704 363.487L306.562 372.114C305.927 373.979 305.154 375.625 304.242 377.053C303.369 378.441 302.06 379.552 300.315 380.385C298.768 381.139 297.141 381.634 295.436 381.872C293.73 382.071 291.231 382.17 287.939 382.17Z" fill="white"/>
<path d="M576.555 459.52V357.537H586.67V459.52H576.555Z" fill="#2AB36B"/>
<circle cx="869.5" cy="403.5" r="22.5" stroke="white" stroke-width="4"/>
<circle cx="1149.5" cy="403.5" r="22.5" stroke="white" stroke-width="4"/>
<rect x="165.5" y="245.5" width="1113" height="327" stroke="#C1FFDF" stroke-width="3" stroke-dasharray="12 12"/>
<path d="M650.204 111V95.166H653.133L653.51 101.27L653.206 100.429C653.273 99.7915 653.399 99.1438 653.583 98.4865C653.776 97.8292 654.047 97.225 654.395 96.674C654.752 96.123 655.207 95.6832 655.758 95.3545C656.318 95.0162 657 94.847 657.802 94.847C657.995 94.847 658.189 94.8567 658.382 94.876C658.575 94.8953 658.754 94.9292 658.919 94.9775V98.6315C658.59 98.5252 658.237 98.4575 657.86 98.4285C657.493 98.3898 657.154 98.3705 656.845 98.3705C656.468 98.3705 656.062 98.4478 655.627 98.6025C655.192 98.7475 654.791 98.9698 654.424 99.2695C654.056 99.5692 653.79 99.9413 653.626 100.386V111H650.204ZM667.44 111.218C665.98 111.218 664.709 110.903 663.626 110.275C662.544 109.647 661.703 108.723 661.103 107.505C660.504 106.278 660.204 104.775 660.204 102.996C660.204 101.314 660.518 99.864 661.147 98.646C661.785 97.428 662.655 96.4952 663.757 95.8475C664.859 95.1902 666.106 94.8615 667.498 94.8615C669.006 94.8615 670.296 95.1902 671.369 95.8475C672.452 96.4952 673.283 97.428 673.863 98.646C674.443 99.864 674.733 101.314 674.733 102.996C674.733 104.775 674.409 106.278 673.762 107.505C673.124 108.723 672.254 109.647 671.152 110.275C670.05 110.903 668.812 111.218 667.44 111.218ZM667.498 108.303C668.609 108.303 669.518 107.887 670.224 107.056C670.929 106.225 671.282 104.871 671.282 102.996C671.282 101.256 670.939 99.951 670.253 99.081C669.566 98.211 668.629 97.776 667.44 97.776C666.328 97.776 665.419 98.2062 664.714 99.0665C664.018 99.9268 663.67 101.237 663.67 102.996C663.67 104.784 664.023 106.118 664.728 106.998C665.444 107.868 666.367 108.303 667.498 108.303ZM684.234 111.218C682.774 111.218 681.503 110.903 680.42 110.275C679.338 109.647 678.497 108.723 677.897 107.505C677.298 106.278 676.998 104.775 676.998 102.996C676.998 101.314 677.312 99.864 677.941 98.646C678.579 97.428 679.449 96.4952 680.551 95.8475C681.653 95.1902 682.9 94.8615 684.292 94.8615C685.8 94.8615 687.09 95.1902 688.163 95.8475C689.246 96.4952 690.077 97.428 690.657 98.646C691.237 99.864 691.527 101.314 691.527 102.996C691.527 104.775 691.203 106.278 690.556 107.505C689.918 108.723 689.048 109.647 687.946 110.275C686.844 110.903 685.606 111.218 684.234 111.218ZM684.292 108.303C685.403 108.303 686.312 107.887 687.018 107.056C687.723 106.225 688.076 104.871 688.076 102.996C688.076 101.256 687.733 99.951 687.047 99.081C686.36 98.211 685.423 97.776 684.234 97.776C683.122 97.776 682.213 98.2062 681.508 99.0665C680.812 99.9268 680.464 101.237 680.464 102.996C680.464 104.784 680.817 106.118 681.522 106.998C682.238 107.868 683.161 108.303 684.292 108.303ZM699.453 111.232C698.196 111.232 697.215 110.913 696.509 110.275C695.813 109.627 695.465 108.704 695.465 107.505V99.5015C695.465 99.1825 695.533 98.8973 695.668 98.646C695.803 98.385 696.002 98.2207 696.263 98.153L695.465 95.804V95.3835L696.234 90.642H698.844V106.65C698.844 107.211 698.964 107.602 699.206 107.824C699.457 108.047 699.921 108.158 700.598 108.158C701.033 108.158 701.434 108.158 701.802 108.158C702.169 108.148 702.502 108.139 702.802 108.129V111.044C702.299 111.131 701.748 111.184 701.149 111.203C700.55 111.222 699.984 111.232 699.453 111.232ZM693.392 98.153V95.166H702.831V98.153H693.392Z" fill="white"/>
<path d="M747.233 650V634.166H750.699L750.655 650H747.233ZM748.988 631.831C748.359 631.831 747.828 631.614 747.393 631.179C746.958 630.734 746.74 630.169 746.74 629.482C746.74 628.806 746.958 628.255 747.393 627.829C747.828 627.404 748.359 627.191 748.988 627.191C749.597 627.191 750.119 627.404 750.554 627.829C750.998 628.255 751.221 628.806 751.221 629.482C751.221 630.169 750.998 630.734 750.554 631.179C750.119 631.614 749.597 631.831 748.988 631.831ZM754.992 650V634.166H757.921L758.298 640.14L758.052 638.936C758.168 638.066 758.395 637.245 758.733 636.471C759.081 635.688 759.598 635.055 760.285 634.572C760.971 634.089 761.889 633.847 763.04 633.847C764.538 633.847 765.698 634.316 766.52 635.253C767.341 636.181 767.752 637.602 767.752 639.516V650H764.33V640.705C764.33 639.797 764.238 639.067 764.055 638.516C763.881 637.965 763.595 637.569 763.199 637.327C762.803 637.076 762.276 636.95 761.619 636.95C760.903 636.95 760.251 637.163 759.661 637.588C759.081 638.004 758.665 638.477 758.414 639.009V650H754.992ZM779.64 650.174C778.596 650.174 777.764 650 777.146 649.652C776.527 649.304 776.073 648.898 775.783 648.434C775.493 647.96 775.309 647.545 775.232 647.187L774.072 647.245L775.42 646.099C775.488 646.341 775.638 646.578 775.87 646.81C776.102 647.032 776.44 647.216 776.885 647.361C777.329 647.496 777.875 647.564 778.523 647.564C779.606 647.564 780.495 647.143 781.191 646.302C781.897 645.461 782.25 644.055 782.25 642.083C782.25 640.382 781.921 639.077 781.264 638.168C780.606 637.25 779.765 636.79 778.741 636.79C778.016 636.79 777.416 636.892 776.943 637.095C776.479 637.298 776.126 637.535 775.884 637.805C775.642 638.076 775.488 638.318 775.42 638.53V637.443C775.439 637.124 775.522 636.766 775.667 636.37C775.821 635.964 776.068 635.572 776.406 635.195C776.754 634.809 777.208 634.495 777.769 634.253C778.339 634.002 779.045 633.876 779.886 633.876C781.162 633.876 782.235 634.219 783.105 634.905C783.975 635.592 784.632 636.534 785.077 637.733C785.531 638.922 785.759 640.275 785.759 641.793C785.759 643.195 785.585 644.422 785.237 645.476C784.898 646.52 784.434 647.39 783.845 648.086C783.265 648.782 782.612 649.304 781.887 649.652C781.162 650 780.413 650.174 779.64 650.174ZM772.013 655.844V634.166H775.377L775.42 636.355V646.23L775.232 647.187L775.42 650.015V655.844H772.013ZM793.554 650.319C792.182 650.319 791.08 649.84 790.248 648.883C789.417 647.926 789.001 646.554 789.001 644.765V634.166H792.423V643.852C792.423 644.625 792.51 645.263 792.684 645.766C792.858 646.269 793.134 646.636 793.511 646.868C793.888 647.1 794.376 647.216 794.975 647.216C795.7 647.216 796.353 647.008 796.933 646.592C797.523 646.167 797.938 645.689 798.18 645.157V634.166H801.602V650H798.687L798.296 644.026L798.557 645.229C798.441 646.099 798.209 646.921 797.861 647.694C797.523 648.468 797.005 649.101 796.309 649.594C795.623 650.077 794.705 650.319 793.554 650.319ZM810.499 650.232C809.243 650.232 808.262 649.913 807.556 649.275C806.86 648.627 806.512 647.704 806.512 646.505V638.501C806.512 638.182 806.58 637.897 806.715 637.646C806.85 637.385 807.048 637.221 807.309 637.153L806.512 634.804V634.383L807.28 629.642H809.89V645.65C809.89 646.211 810.011 646.602 810.253 646.824C810.504 647.047 810.968 647.158 811.645 647.158C812.08 647.158 812.481 647.158 812.848 647.158C813.216 647.148 813.549 647.139 813.849 647.129V650.044C813.346 650.131 812.795 650.184 812.196 650.203C811.597 650.222 811.031 650.232 810.499 650.232ZM804.438 637.153V634.166H813.878V637.153H804.438Z" fill="white"/>
<path d="M676 255.547L687.547 244L676 232.453L664.453 244L676 255.547ZM674 123V244H678V123H674Z" fill="#2CFF80"/>
<path d="M583.5 530.953L571.953 542.5L583.5 554.047L595.047 542.5L583.5 530.953ZM583.5 642H581.5V644H583.5V642ZM729.5 644C730.605 644 731.5 643.105 731.5 642C731.5 640.895 730.605 640 729.5 640V644ZM581.5 542.5V642H585.5V542.5H581.5ZM583.5 644H729.5V640H583.5V644Z" fill="#2CFF80"/>
</svg>
